<?xml version="1.0" standalone="no"?>
<!DOCTYPE svg PUBLIC "-//W3C//DTD SVG 1.1//EN" "http://www.w3.org/Graphics/SVG/1.1/DTD/svg11.dtd" >
<svg xmlns="http://www.w3.org/2000/svg">
<metadata>
This is a custom SVG webfont generated by Font Squirrel.
Copyright   : Appetite designed by Denis Serebryakov  wwwdsgnby
Designer    : Denis Serebryakov
Foundry     : Denis Serebryakov
</metadata>
<defs>
<font id="AppetiteRegular" horiz-adv-x="1259" >
<font-face units-per-em="2048" ascent="1536" descent="-512" />
<missing-glyph horiz-adv-x="509" />
<glyph unicode=" "  horiz-adv-x="509" />
<glyph unicode="&#x09;" horiz-adv-x="509" />
<glyph unicode="&#xa0;" horiz-adv-x="509" />
<glyph unicode="!" horiz-adv-x="544" d="M-8 1393q18 51 92 98t156 47q127 0 205.5 -85t78.5 -228q0 -147 -22.5 -317.5t-78.5 -314.5t-132 -144q-51 0 -88 71.5t-54.5 184t-25.5 201.5t-10 175q-2 111 -24.5 176.5t-46.5 81t-40 27t-10 27.5zM98 164q0 82 59.5 141.5t141.5 59.5t141.5 -59.5t59.5 -141.5 q0 -84 -58.5 -143.5t-142.5 -59.5t-142.5 59.5t-58.5 143.5z" />
<glyph unicode="&#x22;" horiz-adv-x="808" d="M31 1305q0 111 56 173t124 62t124 -62.5t56 -172.5q0 -145 -62.5 -286.5t-117.5 -141.5t-117.5 142.5t-62.5 285.5zM418 1305q0 111 56 173t124 62t124 -62.5t56 -172.5q0 -145 -62.5 -286.5t-117.5 -141.5t-117.5 142.5t-62.5 285.5z" />
<glyph unicode="#" horiz-adv-x="1208" d="M12 279l45 135q2 6 11 6h249q53 156 68 201h-258l-6 8l45 135q2 8 10 8q125 0 260 -2l84 252q2 8 12 10h134l4 -10q-35 -106 -84 -252h190l86 252l10 10h134l6 -10q-37 -109 -84 -254h262l6 -8l-43 -133q-4 -8 -14 -9h-262q-23 -66 -68 -200h272l6 -8l-43 -134 q-4 -8 -14 -8h-270q-27 -76 -57.5 -167t-30.5 -93l-10 -8h-136h-4q-2 2 0 6q6 23 86 262q-127 0 -190 2q-80 -242 -86 -262l-10 -8h-138h-4v6l88 264h-250zM469 420q127 0 190 -2q45 135 68 200q-63 2 -192 3q-35 -111 -66 -201z" />
<glyph unicode="$" horiz-adv-x="1024" d="M20 221q0 78 54.5 132.5t138.5 54.5q49 0 96 -11.5t53 -23.5q6 -8 7.5 -19.5t-0.5 -32t-2 -32.5q0 -59 32.5 -92t85.5 -33q102 0 107 92q0 25 -13.5 44t-28.5 32.5t-48 28t-54.5 21.5t-67.5 21.5t-71 22.5q-117 41 -193.5 118t-78.5 189v6q0 117 87 199t218 117l-18 135 q-2 10 8 12l121 6q8 0 8 -10q-4 -39 -4 -125h28q43 0 66 -2l-6 127l8 10l121 -6l8 -10q-8 -59 -16 -137q129 -27 208.5 -90.5t79.5 -157.5q2 -76 -50 -127t-142 -51q-47 0 -92 12t-52 25q-4 8 -5 18t1 30.5t2 35.5q0 61 -25.5 89.5t-76.5 26.5q-43 -2 -67.5 -32.5 t-24.5 -63.5q0 -45 35 -75.5t73.5 -46t118.5 -38.5q18 -6 29 -8q326 -96 326 -313q0 -131 -96.5 -210t-243.5 -108l18 -127l-6 -10l-121 -6q-10 0 -10 10q4 37 4 119q-20 -2 -60 -2h-32l4 -117l-8 -10l-121 6l-8 10q6 53 14 123q-135 25 -226.5 87.5t-91.5 166.5z" />
<glyph unicode="%" horiz-adv-x="1515" d="M8 782.5q0 120.5 84 200.5t221 80l901 -4l3 -8q-260 -498 -318.5 -625t-58.5 -195q0 -41 12 -81.5t19.5 -65.5t0.5 -35q-61 -57 -135.5 -75.5t-135 1t-105.5 66.5t-50.5 124t31.5 173l281 567h-164q27 -59 27 -123q0 -121 -82 -199.5t-226 -78.5q-139 0 -222 79 t-83 199.5zM258 782q0 -125 55 -125q59 0 59.5 125t-59.5 125q-55 0 -55 -125zM895 241.5q0 120.5 84 200.5t221 80q143 0 225 -80t82 -200.5t-82 -199.5t-225 -79q-139 0 -222 79t-83 199.5zM1145 242q0 -125 55 -125q59 0 59.5 125t-59.5 125q-55 0 -55 -125z" />
<glyph unicode="&#x26;" d="M10 258q0 215 250 281q-188 51 -188 217q0 88 48 153.5t128 99t164 49t172 15.5q72 0 144.5 -12t146 -39t119.5 -80t46 -125q2 -72 -59 -110.5t-152 -38.5q-47 0 -92 11t-53 23q-4 6 -5 10.5t0 7.5t2 13t1 23q0 109 -115 108q-53 0 -81.5 -34.5t-28.5 -81.5 q0 -45 28.5 -83t83.5 -38h6h3h677q6 0 7 -11v-186l-9 -10h-215v-8q0 -70 4 -99q8 -57 43 -87.5t68 -36t84 -5.5q23 0 29 -16t-4 -37q-90 -186 -297 -186q-184 0 -254 170q-68 -94 -188 -136t-232.5 -28t-196.5 95t-84 212zM440 279q0 -47 23.5 -77t73.5 -26q61 4 101 69.5 t32 172.5h-78q-78 0 -115 -45t-37 -94z" />
<glyph unicode="'" horiz-adv-x="421" d="M31 1358q0 74 52 127t128 53q74 0 127 -55.5t53 -136.5q0 -131 -74.5 -217.5t-146.5 -110.5q-94 -35 -94 4q0 18 33 47q37 35 52 58.5t11 38t-22 20.5q-53 23 -86 68t-33 104z" />
<glyph unicode="(" horiz-adv-x="442" d="M20 565q0 469 256 817q55 72 97 111q25 31 39 28t6 -40q-12 -35 -31.5 -103.5t-51.5 -307.5t-32 -511q0 -252 28.5 -472t57.5 -316l29 -95q8 -35 -5.5 -39t-39.5 27q-14 12 -38 37t-84.5 111t-107.5 183t-85 251.5t-38 318.5z" />
<glyph unicode=")" horiz-adv-x="483" d="M45 -303q12 33 31.5 98.5t51.5 288.5t32 475q0 555 -107 897l-8 25q-8 37 6.5 40t38.5 -28q14 -12 38 -37.5t84 -114t107.5 -187.5t85 -259t37.5 -330q0 -164 -35.5 -315.5t-88 -249.5t-104.5 -173t-87 -110l-37 -32q-27 -31 -40 -27t-5 39z" />
<glyph unicode="*" horiz-adv-x="733" d="M24.5 1288q14.5 35 51.5 54.5t100 -1.5q59 -20 119 -65q-27 76 -27 135q0 80 49.5 112.5t98.5 0t49 -112.5q0 -63 -25 -133q51 41 117 63q63 20 100 1t51.5 -54t-9 -74.5t-81.5 -58.5q-66 -20 -129 -16q59 -45 95 -90q39 -55 30.5 -95.5t-36 -65t-73.5 -14t-81 59.5 q-37 51 -57 123q-18 -66 -58 -123q-35 -49 -81 -59.5t-73.5 14t-35.5 64.5t31 96q39 51 94 90q-63 -4 -129 16q-57 18 -81 58t-9.5 75z" />
<glyph unicode="+" horiz-adv-x="956" d="M47 434v172q0 10 10 10h322l2 322l8 10h178q8 0 8 -10v-322h324l10 -8v-176q0 -6 -8 -6h-326v-324l-6 -10h-182q-8 0 -8 8v326h-322z" />
<glyph unicode="," horiz-adv-x="462" d="M31 164q0 82 58 141.5t142 59.5q82 0 141.5 -61.5t59.5 -151.5q0 -147 -83 -242.5t-163 -124.5q-104 -35 -104 6q0 20 35 51q41 39 58.5 65.5t13 42t-24.5 23.5q-59 25 -96 75t-37 116z" />
<glyph unicode="-" horiz-adv-x="753" d="M61 430v176q2 10 13 10h608l8 -8v-180q0 -6 -8 -6h-610z" />
<glyph unicode="." horiz-adv-x="462" d="M31 164q0 82 58 141.5t142 59.5t142.5 -59.5t58.5 -141.5t-58.5 -141.5t-142.5 -59.5t-142 59.5t-58 141.5z" />
<glyph unicode="/" horiz-adv-x="833" d="M2 -350l621 1823q2 10 12 10h172l4 -10q-584 -1718 -616 -1823q-4 -8 -13 -8h-174l-6 2v6z" />
<glyph unicode="0" horiz-adv-x="1124" d="M25 569q0 248 141 431.5t391 183.5q168 0 294 -91.5t184.5 -228.5t58.5 -295q0 -119 -34 -226t-97.5 -196.5t-169 -141.5t-236.5 -52q-170 0 -294 91t-181 228t-57 297zM426 569.5q0 -401.5 131 -401.5q45 0 73.5 35t41 101.5t16.5 124.5t4 140q0 401 -135 402 q-131 0 -131 -401.5z" />
<glyph unicode="1" horiz-adv-x="561" d="M14 1051q-8 14 4.5 24t42.5 17l433 96q6 0 6 -10v-1168l-8 -10h-396q-8 0 -8 10v819q0 82 -15.5 130.5t-37 69t-21.5 22.5z" />
<glyph unicode="2" horiz-adv-x="1013" d="M23 913q0 96 82.5 161t182 87.5t201.5 22.5q123 0 234 -31t192.5 -107.5t81.5 -185.5q0 -61 -30.5 -124.5t-80.5 -116t-109.5 -100.5t-119 -84t-109.5 -62.5t-81 -40.5l-31 -15l-6 -2q209 2 531 2l8 -8v-301q2 -8 -8 -8h-900l-10 8v299q0 6 6 8q145 59 338 244.5 t193 296.5q0 119 -101 119q-53 0 -86.5 -34t-33.5 -93q0 -14 2 -34.5t1 -31t-5 -18.5q-8 -12 -54.5 -24.5t-95.5 -12.5q-86 0 -140 55t-52 131z" />
<glyph unicode="3" horiz-adv-x="1019" d="M20 221q0 82 53.5 136.5t139.5 54.5q49 0 96 -13.5t56 -25.5q4 -8 5 -21.5t-1 -35t-2 -37.5q0 -57 29.5 -86t78.5 -29q51 0 88 42t37 99q0 72 -47 128t-168 56h-70q-8 0 -8 11v164q0 8 4 8l283 149h-516l-8 8v299q0 8 10 9h881l10 -7v-301q0 -6 -4 -8l-314 -166l-2 -2 q141 -20 244.5 -103t103.5 -222q0 -102 -47 -178t-124.5 -117t-162.5 -60.5t-176 -19.5q-68 0 -142.5 13.5t-151 41t-126 83.5t-49.5 130z" />
<glyph unicode="4" horiz-adv-x="1056" d="M23 158v276q0 4 2 6q96 86 183 188.5t142.5 181.5t99.5 156.5t61 113.5t24 53v2l8 4h356q8 0 8 -11v-534v-137h121l10 -8v-291q0 -8 -10 -8h-121v-144l-8 -10h-381l-8 10q0 57 -2 144h-475zM317 459h195v256q-150 -203 -195 -256z" />
<glyph unicode="5" horiz-adv-x="1021" d="M31 221q0 82 53 136.5t139 54.5q49 0 96.5 -13.5t53.5 -25.5q6 -10 7 -21.5t-1 -35t-2 -37.5q0 -57 29.5 -86t79 -29t83 42t33.5 99t-19.5 94t-74.5 67t-152.5 33t-251.5 -10h-12q-8 0 -8 11v98v231v80v219q0 8 10 9h854q8 0 8 -7v-301q0 -8 -8 -8h-629v-131 q293 55 487.5 -45t194.5 -317q0 -102 -46 -178t-121.5 -117t-159.5 -60.5t-174 -19.5q-70 0 -143.5 13.5t-150.5 41t-126 83.5t-49 130z" />
<glyph unicode="6" horiz-adv-x="1050" d="M27 578q4 262 151.5 437t388.5 173q176 -2 293 -88t117 -180q0 -76 -49 -126.5t-140 -48.5q-47 0 -91 13.5t-50 23.5q-4 8 -5 19.5t1 31t2 31.5q0 117 -80 117q-72 2 -101.5 -80t-31.5 -213q270 78 436 -31.5t164 -296.5q0 -117 -53 -202.5t-134 -126.5t-150.5 -58.5 t-131.5 -17.5q-252 2 -395 180.5t-141 442.5zM432 512q0 -332 121 -332q43 0 69.5 41t34 81t5.5 71q-9 192 -230 139z" />
<glyph unicode="7" horiz-adv-x="921" d="M6 829v299q0 8 10 9h881l10 -7v-301q0 -6 -4 -8q-14 -8 -36.5 -22.5t-80 -63.5t-101.5 -100t-81 -131t-39 -160q0 -90 29 -141q16 -29 36.5 -46.5t36 -23.5t23.5 -14t4 -21q-18 -51 -92 -98t-156 -47q-127 0 -214 83t-87 230q0 82 35 163t83 139.5t114.5 112.5t114 84 t96.5 56h-572z" />
<glyph unicode="8" horiz-adv-x="1085" d="M31 321.5q0 98.5 64.5 167t166.5 99.5q-92 23 -147.5 91.5t-55.5 164.5q0 176 135.5 259t337.5 83h21q127 0 230.5 -34t173 -112.5t69.5 -195.5q0 -96 -55.5 -164t-147.5 -92q102 -31 167 -99.5t65 -167t-43 -173t-118 -115.5t-160 -60.5t-181 -19.5h-21q-96 0 -181 19.5 t-159.5 60.5t-117.5 115.5t-43 173zM430 338q0 -72 31 -114t80 -42q51 0 81.5 42t30.5 114q0 61 -31.5 112.5t-80.5 51.5q-47 0 -79 -51.5t-32 -112.5zM430 823q0 -57 32 -105t79 -48t78.5 48t31.5 105q0 63 -30.5 105.5t-79.5 42.5t-80 -43.5t-31 -104.5z" />
<glyph unicode="9" horiz-adv-x="1044" d="M23 780q0 96 32.5 172t81.5 118t114.5 68.5t121 36t110.5 9.5q250 0 390.5 -175t140.5 -446q0 -287 -140.5 -448.5t-390.5 -161.5q-170 0 -288.5 71.5t-124.5 178.5q-4 80 46 141.5t138 61.5q47 2 92 -11.5t53 -23.5q4 -8 5.5 -19.5t-1 -32t-2.5 -32.5q0 -123 91 -123 q119 0 118 303q-180 -61 -311 -25.5t-203.5 128.5t-72.5 210zM377 772q10 -178 231 -119q6 137 -22.5 214t-104.5 75q-61 -2 -84.5 -60.5t-19.5 -109.5z" />
<glyph unicode=":" horiz-adv-x="462" d="M31 164q0 82 58 141.5t142 59.5t142.5 -59.5t58.5 -141.5t-58.5 -141.5t-142.5 -59.5t-142 59.5t-58 141.5zM31 711q0 84 58 142t142 58t142.5 -58t58.5 -142t-58.5 -142.5t-142.5 -58.5t-142 58.5t-58 142.5z" />
<glyph unicode=";" horiz-adv-x="462" d="M31 164q0 82 58 141.5t142 59.5q82 0 141.5 -61.5t59.5 -151.5q0 -147 -83 -242.5t-163 -124.5q-104 -35 -104 6q0 20 35 51q41 39 58.5 65.5t13 42t-24.5 23.5q-59 25 -96 75t-37 116zM31 711q0 84 58 142t142 58t142.5 -58t58.5 -142t-58.5 -142.5t-142.5 -58.5 t-142 58.5t-58 142.5z" />
<glyph unicode="=" horiz-adv-x="1024" d="M59 236v176q2 10 13 10h874l8 -8v-181q0 -6 -8 -6h-876zM59 584v176q2 10 13 10h874l8 -8v-180q0 -6 -8 -7h-876z" />
<glyph unicode="?" horiz-adv-x="612" d="M-131 1231q2 115 125 208t309 93q203 0 322.5 -101.5t119.5 -228.5q0 -72 -31.5 -135t-97 -152.5t-100.5 -154.5q-14 -27 -46 -96.5t-52.5 -107.5t-56 -72.5t-72.5 -34.5q-68 0 -114 104t-35.5 212.5t114.5 253t104 210.5q2 37 -14 69.5t-59 32.5q-72 0 -76 -133 q0 -12 2 -36.5t1 -40t-5 -23.5q-6 -10 -56.5 -22.5t-97.5 -14.5q-92 0 -139 48t-45 122zM96 164q0 82 58.5 141.5t142.5 59.5t142.5 -59.5t58.5 -141.5q0 -84 -58.5 -143.5t-142.5 -59.5t-142.5 59.5t-58.5 143.5z" />
<glyph unicode="@" horiz-adv-x="1472" d="M20 514q0 295 206 502t507 207q309 0 515 -183.5t202 -478.5q-2 -195 -126 -316.5t-275 -121.5q-57 0 -104.5 20.5t-74 54t-38 53t-19.5 38.5q-82 -160 -223 -160q-127 0 -202 116.5t-75 270.5q0 158 75 270.5t208 112.5q137 0 213 -135v98l6 8h285q6 0 6 -6l-10 -438 q10 -90 80 -90q53 0 91 66.5t38 163t-34 187.5t-99.5 169.5t-178 127t-254.5 48.5q-254 0 -412.5 -178.5t-158.5 -411.5q0 -150 55.5 -265.5t142.5 -181t183 -97.5t190 -32q123 0 225.5 25t141.5 40t43 5q2 -6 -8.5 -26.5t-39 -50t-73.5 -56.5t-123 -45.5t-172 -18.5 q-301 0 -507 207t-206 502zM604 516q0 -84 27.5 -138t79 -54t79 54t27.5 138t-27.5 138.5t-79 54.5t-79 -54.5t-27.5 -138.5z" />
<glyph unicode="A" horiz-adv-x="1411" d="M12 10q352 1102 353 1104q32 93 32 138q0 9 -2 17q-8 42 -26.5 69.5t-14.5 41.5q18 57 109.5 99.5t183.5 42.5q119 0 221.5 -81t159.5 -241q39 -106 131 -404t166 -542l74 -244l-6 -10h-463q-10 0 -12 10l-52 217h-362l-45 -217q-4 -10 -15 -10h-428zM561 504h240 l-121 594q-20 -86 -63.5 -310.5t-55.5 -283.5z" />
<glyph unicode="B" horiz-adv-x="1320" d="M61 551v2v2v2v2v2v2v2v2v2v2v2v2v3v2v2v2v2v2v2v2v2v2v2v2v2v2v2v2v2v2v2v2v2v3v2v2v2v2v2v2v2v2v2v2v2v2v2v2v2v2v2v2v2v3v2v2v2v4v2v2v2v2v2v2v2v2v2v2v2v4v2v2v3v2v2v2v2v4v2v2v2v2v2v4v2v2v2v2v2v4v3v2v2v4v2v2v2v2v4v2v2v2v4v2v2v2v4v3v2v4v2v2v2v4v2v2v4v2v2v4v2v2 v4v3v2v4v2v2v4v2v2v4v2v2v4v2v4v2v2v5v2v4v2v2v4v2v4v2v2v4v2v4v2v5v2v4v2v2v4v2v4v2v4v2v4v2v4v3v4v2v4v2v4v2v4v2v4v2v4v2v4v3v4v4v2v4v2v4v2v4v2v4v4v2v5v2v4v4v2v4v2v4v4v2v4v2v4v5v2v4v2v4v4v2v4v4v2v4v4v2v5v4v2v4v4v2v4v4v2v4v4v2v5v4v2v4v4v4v2v4v4v2v4v4v5v2v4v4v4 v2v4v4v4v2v4v4v5v4v2v4v4v4v2v4v4v4v4v2v5v4v4v4v4v2v4v4v4v4v4v2v5v4v4v4v4v4v2v4v4v4v4v5v4v4v2v4v4v4v21q0 12 11 12q219 63 549 63q106 0 201.5 -17t183.5 -56t140 -115t52 -180q0 -100 -53 -187.5t-117 -111.5q-12 -8 2 -13q129 -45 199.5 -150.5t70.5 -219.5 q0 -131 -53 -230.5t-145 -158t-204 -87t-241 -28.5q-133 0 -237.5 38t-171 97.5t-109.5 140t-60.5 159.5t-17.5 161zM510 403q8 -203 176 -202q84 0 131 59t47 160q0 137 -104 207q-74 49 -169 49q-39 0 -81 -8v-265zM510 893q135 0 199.5 62.5t64.5 152.5q0 123 -84 160 q-50 22 -105 22q-37 0 -75 -10v-387z" />
<glyph unicode="C" horiz-adv-x="1314" d="M20 739q0 315 202 541.5t515 228.5h9q233 0 384 -103q154 -105 154 -271q0 -90 -61.5 -162t-165.5 -72q-68 0 -114 21.5t-44 52.5q5 35 5 68q0 71 -24 126q-36 82 -132 82q-88 0 -154 -90t-91 -211q-16 -77 -17 -149q0 -40 6 -78q23 -188 113.5 -303t207.5 -140 q51 -11 104 -12q68 0 138 19q125 33 221 119q17 15 27 14q12 0 12 -22q0 -8 -6 -40q-8 -31 -25.5 -71.5t-62.5 -100t-105.5 -107.5t-161 -84t-219.5 -38h-15q-289 0 -492 227q-208 233 -208 555z" />
<glyph unicode="D" horiz-adv-x="1345" d="M61 27v1405q0 12 11 12q184 57 520 57q328 0 532.5 -221t204.5 -551q0 -336 -194.5 -556t-542.5 -220q-330 0 -520 61q-11 1 -11 13zM512 178h17q166 0 254 158q93 166 94 403q0 98 -21.5 194.5t-63.5 181.5t-115 131q-55 35 -122 35q-21 0 -43 -3v-1100z" />
<glyph unicode="E" horiz-adv-x="1107" d="M61 512l2 944l13 10h977q12 0 16 -10t7 -26q4 -22 4 -72q0 -43 -10 -80q-11 -41 -51 -87t-105.5 -72.5t-163.5 -27.5q-8 0 -15 -1q-88 0 -149 12l-66 12q0 -12 -1 -111.5t-1 -158.5h338l10 -10v-205l-12 -11h-338v-147q2 -94 65.5 -143t149.5 -53h23l149 18q86 20 144 57 q31 18 43 4q8 -10 8 -30q0 -10 -2 -23q-6 -43 -41 -98.5t-94.5 -112.5t-159 -96t-215.5 -39q-250 0 -387.5 164t-137.5 393z" />
<glyph unicode="F" horiz-adv-x="1079" d="M61 313l2 1141l11 10h975q12 0 16 -10t8 -27q5 -21 5 -70q0 -42 -10 -79q-11 -41 -52 -87t-107 -75q-68 -29 -166 -30h-14q-88 0 -147 12l-66 14q0 -14 -1 -104t-1 -154h334l12 -12v-217l-14 -11h-334v-182q2 -90 19.5 -150.5t39 -84t41 -34.5t30.5 -19.5t5 -22.5 q-20 -59 -103 -112.5t-171 -53.5q-135 0 -223.5 89t-88.5 269z" />
<glyph unicode="G" horiz-adv-x="1345" d="M29 741q0 315 201.5 542.5t517.5 229.5q5 0 9 1q235 0 386 -104q154 -105 153 -271q0 -90 -61 -163t-166 -73q-70 0 -116 21.5t-44 52.5q5 35 5 68q0 71 -24 127q-36 83 -132 83q-88 0 -151.5 -91t-88.5 -210q-18 -89 -18 -173q0 -28 2 -56q4 -49 11 -96t33.5 -120 t66.5 -124t114 -89q67 -34 151 -34h19q5 53 5 98q0 54 -7 95q-12 76 -32.5 97t-35 37.5t-8.5 33.5q20 53 94 99t156 46q125 0 195.5 -83t70.5 -228q0 -160 -16 -291q0 -16 -12 -25q-2 -2 -22.5 -16t-33 -22.5t-40 -26t-52 -28.5t-59.5 -26.5t-73 -25.5t-82 -19.5t-95 -14.5 t-105 -5q-303 0 -509.5 231t-206.5 553z" />
<glyph unicode="H" horiz-adv-x="1406" d="M-8 1370q18 53 102 102.5t170 49.5q125 0 209 -83t84 -247q0 -29 -1 -139.5t-1 -157.5h356l-4 557l11 10h425l9 -10l-2 -1442l-11 -10h-424l-8 10l4 590h-360l2 -590l-10 -10h-422l-8 10q4 1118 4 1120q-8 82 -32 132.5t-47.5 61.5t-37.5 21q-10 6 -10 16q0 4 2 9z" />
<glyph unicode="I" horiz-adv-x="636" d="M-8 1364q18 53 105 101t175 48q131 0 217 -81.5t86 -245.5v-1176l-10 -10h-436l-8 10v1112q-6 68 -23.5 113t-37 62.5t-38 27.5t-26.5 17q-5 5 -6 13q1 4 2 9z" />
<glyph unicode="J" horiz-adv-x="958" d="M10 238q0 84 59.5 149.5t147.5 65.5q53 0 106.5 -12.5t57.5 -24.5q4 -16 1 -28.5t-9 -48.5t-6 -69q0 -131 71 -131q88 0 88 125q0 70 -37.5 175.5t-37.5 187.5v512q-4 74 -27 119t-48.5 56t-42 22.5t-9.5 27.5q18 53 105 101t175 48q129 0 211 -80.5t82 -246.5v-57 q0 -48 -1 -179t-1 -340q0 -651 -485 -651q-188 0 -294 83t-106 196z" />
<glyph unicode="K" horiz-adv-x="1417" d="M-8 1364q18 53 105 101t175 48q131 0 217 -81.5t86 -245.5v-334q106 0 176 95q67 92 66 216q0 133 -78 223q-14 14 15.5 45t91 56.5t125.5 25.5q127 0 209 -92t82 -223q0 -291 -308 -450q4 -16 15.5 -50t48.5 -108t82 -139.5t124 -133t171 -102.5q5 -8 4 -29 q0 -15 -2 -38q-6 -52 -69.5 -115.5t-151.5 -73.5q-30 -3 -59 -3q-338 0 -447 472q-12 51 -37 213q-8 -2 -58 -8v-623l-10 -10h-436l-8 10v1112q-6 68 -23.5 113t-37 62.5t-38 27.5t-26.5 17q-5 5 -6 13q1 4 2 9z" />
<glyph unicode="L" horiz-adv-x="1083" d="M-8 1364q18 53 105 101t175 48q131 0 217 -81.5t86 -245.5v-867h35q100 0 177 7.5t114 18.5t65.5 22.5t33 19.5t15.5 11t13 -5q43 -33 51 -100q3 -26 4 -51q0 -52 -15 -96q-22 -65 -67 -103.5t-106 -63t-131 -26.5q-17 -1 -35 -1q-53 0 -106 5q-338 43 -494 43l-8 10 v1112q-6 68 -23.5 113t-37 62.5t-38 27.5t-26.5 17q-5 5 -6 13q1 4 2 9z" />
<glyph unicode="M" horiz-adv-x="1722" d="M-6 1370q18 53 114.5 102.5t194.5 49.5q70 0 126 -22.5t103.5 -73t76 -94.5t73.5 -120q45 -78 96 -176t80 -155l29 -60l352 631q4 8 14 10h396l10 -10l6 -1442l-12 -10h-418l-10 10l6 656l39 211l-322 -611q-4 -8 -26 -8h-58q-25 0 -28 8l-336 617l39 -191l12 -682 l-10 -10h-432l-11 10q14 1118 15 1120q-2 66 -17.5 110t-35 62.5t-37 28.5t-26.5 18q-6 4 -6 11q1 4 3 10z" />
<glyph unicode="N" horiz-adv-x="1425" d="M-6 1370q20 53 111.5 102.5t187.5 49.5q111 0 183.5 -62.5t162.5 -197.5q215 -367 315 -586l-20 196l-10 582l8 10h426q10 0 10 -10l-6 -1444l-10 -10h-377h-2q-7 0 -12 10l-435 854l19 -170l18 -684l-10 -10h-438l-11 10q12 1118 13 1120q-4 80 -26.5 129.5t-47.5 61.5 t-40 22q-11 7 -11 18q0 4 2 9z" />
<glyph unicode="O" horiz-adv-x="1454" d="M20 731.5q0 323.5 198 550.5t511 227q315 0 513 -227t198 -551q0 -326 -194.5 -550t-516.5 -224q-315 0 -512 225.5t-197 549zM483 731q0 -195 70 -370t176 -175q76 0 134.5 87t86 209t27.5 249q0 201 -69.5 375t-178 174t-177.5 -174t-69 -375z" />
<glyph unicode="P" horiz-adv-x="1204" d="M53 311l2 1121l11 10q27 8 72.5 19.5t187.5 28.5q114 14 226 14q26 0 52 -1q252 -8 419 -131t167 -338q0 -72 -17.5 -139.5t-65.5 -139t-122 -122.5t-198 -81q-103 -25 -229 -25q-26 0 -54 1v-98q2 -90 19.5 -150.5t38 -84t41 -34.5t30.5 -19.5t4 -22.5 q-20 -59 -103 -112.5t-172 -53.5q-135 0 -222 89t-87 269zM504 739q117 0 188.5 90.5t71.5 209t-74 190.5q-59 57 -142 57q-21 0 -44 -4v-543z" />
<glyph unicode="Q" horiz-adv-x="1419" d="M20 733q0 211 81 386t240 282.5t368 107.5q313 0 502.5 -225t189.5 -551q0 -221 -89 -406.5t-249 -277.5q45 -66 88 -65q111 0 166 129q8 20 22 18q16 -2 41 -22.5t53.5 -74.5t34.5 -126q1 -11 1 -22q0 -99 -69 -172q-77 -81 -181 -89q-16 -1 -32 -1q-64 0 -116 21 q-66 26 -111 80t-73.5 109t-57.5 133q-51 -8 -120 -8q-209 0 -368 107.5t-240 281.5t-81 385zM485 733q0 -229 37 -342q52 16 102 16q131 0 238 -112q35 66 54.5 192.5t19.5 245.5q0 129 -22.5 249t-76 208t-128.5 88q-74 0 -126.5 -88t-75 -208t-22.5 -249zM563 289 q59 -100 146 -101q12 0 18 2q-58 101 -138 101q-13 1 -26 -2z" />
<glyph unicode="R" horiz-adv-x="1298" d="M61 12v1418l11 10q27 8 72.5 19t187.5 29q114 14 226 14q26 0 52 -1q250 -8 415 -130t165 -339q0 -133 -71.5 -256t-215.5 -182q111 -264 389 -391q3 -6 3 -28q0 -21 -15 -55q-16 -36 -39.5 -70t-68 -61.5t-99.5 -33.5q-29 -3 -55 -3q-119 0 -210 65q-112 81 -168 219.5 t-71 324.5h-59v-549l-8 -12h-430q-11 0 -11 12zM510 772q117 0 185.5 83t68.5 202q0 117 -70 179q-54 48 -134 48q-24 0 -50 -4v-508z" />
<glyph unicode="S" horiz-adv-x="1304" d="M12 305q-1 8 0 16q0 81 59 146q65 72 167 72q59 0 124.5 -20.5t77.5 -37.5q4 -12 3 -22t-5 -37t-4 -47q2 -125 95 -176q50 -28 101 -28l86 20q93 44 95 153q0 35 -17.5 65.5t-41 52t-68.5 46t-80 39t-95 39t-93 39.5q-180 80 -242 125q-141 104 -149 276q0 9 -1 18 q0 127 84 232q89 113 225 172t281 63q16 0 31 1q235 0 396 -89q171 -94 171 -272q2 -109 -56 -171t-177 -62q-63 0 -114.5 16t-59.5 33q-2 14 -1 27.5t5 49t4 56.5q0 7 1 14q0 54 -29 93q-32 44 -78 57q-31 8 -64 8q-16 0 -33 -2q-49 -6 -86 -45t-41 -97q0 -186 361 -294 q451 -137 450 -431q0 -121 -62.5 -212t-164.5 -140t-215 -72.5t-234 -23.5q-96 0 -191 16.5t-189.5 53t-156 109.5t-69.5 171z" />
<glyph unicode="T" horiz-adv-x="1302" d="M13 1206q-1 13 -1 26q0 30 5 61q7 44 43 92.5t98 80.5q90 47 192 51h28q104 0 309 -19q234 -22 439 -23l134 2q12 0 16 -11q4 -12 8 -31.5t6 -72.5q0 -8 1 -16q0 -44 -10 -82q-11 -45 -51 -90.5t-108 -65.5q-41 -12 -110 -13q-14 0 -27 -1q-52 0 -92 4l-47 6l12 -694 q4 -104 27.5 -166t50.5 -76t43 -25.5t10 -27.5q-18 -55 -104 -105.5t-174 -50.5q-131 0 -218 84t-87 254l14 836h-46q-180 0 -327 -29q-10 -2 -14 10q-2 2 -9.5 25.5t-10.5 66.5z" />
<glyph unicode="U" horiz-adv-x="1429" d="M-8 1354q20 55 98 104t164 49q137 0 235.5 -90t98.5 -237v-785v-4q0 -66 32.5 -109.5t78.5 -55.5q24 -6 48 -6q22 0 44 5q45 10 77.5 55.5t32.5 112.5v1059l8 12h451q8 -2 8 -10q-5 -516 -5 -791q0 -92 1 -157q0 -119 -41 -217.5t-111.5 -162t-163 -108.5t-193.5 -55 q-53 -5 -107 -5q-48 0 -97 4q-102 9 -194 53t-164 107.5t-114 162t-42 215.5v2v524q0 80 -12 139.5t-29.5 87t-38 45t-37 22.5t-24.5 13q-5 5 -6 13z" />
<glyph unicode="V" horiz-adv-x="1359" d="M61 578q2 0 2 874q0 4 3.5 8t7.5 6h2h442q8 -4 8 -16v-946q0 -123 40 -198t118 -75q88 0 150.5 118t62.5 345q0 141 -21.5 251t-53 169.5t-63.5 99t-53.5 62t-21.5 37.5q0 57 86 136t211 79q162 0 264.5 -166t102.5 -508q0 -133 -18.5 -254t-64.5 -241.5t-119 -208 t-189.5 -141.5t-266.5 -54q-119 0 -227.5 37t-199.5 109.5t-146.5 195.5t-55.5 281z" />
<glyph unicode="W" horiz-adv-x="2050" d="M61 569v883l11 14h438q14 -2 14 -16v-1038q0 -143 88 -179q23 -9 44 -9q49 0 92 48q57 63 57 174v1006l8 14h428q8 -4 8 -16v-979q0 -260 140 -260q84 0 134 124t50 359q0 141 -21.5 251t-53.5 169.5t-63.5 99t-53 62t-21.5 37.5q0 57 86 136t211 79q162 0 264 -166 t102 -508q0 -135 -17 -255t-63.5 -240.5t-117 -206.5t-187 -140.5t-266.5 -54.5q-283 0 -426 201q-111 -199 -391 -199q-227 0 -360.5 176t-133.5 434z" />
<glyph unicode="X" horiz-adv-x="1449" d="M6 281q-1 12 -1 24q0 147 116 280q125 144 334 206l-414 661q-6 14 10 14h518l17 -12l278 -543q68 43 88 115q11 37 11 73q0 34 -10 67q-19 69 -46.5 121t-48.5 71q-2 6 -2 20.5t15.5 36t38 42t64.5 37.5t95 22q20 2 40 2q122 0 211 -77q103 -89 118 -231q2 -19 2 -37 q0 -141 -110 -271q-124 -146 -337 -212l441 -680q8 -10 -4 -10h-553l-15 10l-287 541q-63 -49 -79 -115q-7 -28 -7 -54q0 -36 13 -71q23 -59 47 -100t47 -61q4 -6 4 -15q0 -17 -15 -47q-24 -45 -89.5 -89t-151.5 -44q-133 0 -230.5 95.5t-107.5 230.5z" />
<glyph unicode="Y" horiz-adv-x="1368" d="M2 1450l8 16h492q10 0 14 -12l252 -625q41 61 67.5 135t36 135.5t12.5 125.5q1 27 1 50q0 31 -2 54q-4 41 -9 76l-4 33q-2 49 118 80q41 10 82 10q80 0 161 -39q123 -59 129 -229q0 -96 -33 -187.5t-74 -154t-112.5 -130t-117.5 -102.5t-120 -86v-174q2 -90 19.5 -150.5 t39 -84t41 -35t30.5 -19.5t5 -22q-18 -57 -102 -109.5t-172 -52.5q-135 0 -223 87t-88 267q0 211 -2 307z" />
<glyph unicode="Z" horiz-adv-x="1251" d="M13 1180q-1 12 -1 24q0 33 6 68q8 47 44 97t98 83q92 49 202.5 49t356.5 -23.5t485 -23.5q12 0 17 -10l-2 -297q0 -8 -3.5 -17.5t-7.5 -15.5l-4 -4q-123 -160 -214 -286t-126 -176t-72.5 -100t-84.5 -102q-14 -16 -53.5 -47.5t-71.5 -54.5l-33 -25h219q111 0 193.5 10.5 t115.5 24t60.5 26.5t28.5 17t20 -4q43 -33 51 -100q3 -26 3 -51q0 -52 -14 -96q-22 -65 -67 -103.5t-106.5 -63t-130.5 -26.5q-17 -1 -35 -1q-53 0 -107 5q-106 14 -338.5 28.5t-380.5 14.5l-8 10v289q0 25 19 45q16 20 176 245.5t250 334.5q25 29 58.5 58.5t65 52t59.5 41 t44 28.5l18 10q-85 5 -169 5q-269 0 -527 -50q-8 -2 -14 10q-2 2 -9.5 29t-10.5 72z" />
<glyph unicode="[" horiz-adv-x="624" d="M61 -358v1833q2 10 13 10h499l9 -8v-166q2 -8 -7 -8q-182 0 -317 2v-1493h315q8 0 9 -7v-165q2 -8 -7 -9l-503 2z" />
<glyph unicode="\" horiz-adv-x="833" d="M4 1473q-2 8 4 10h172q10 0 13 -10q596 -1751 620 -1823q0 -8 -6 -8h-174q-8 -2 -12 8z" />
<glyph unicode="]" horiz-adv-x="595" d="M37 -195q6 0 8 7h315v1493q-135 -2 -317 -2l-6 8v166q-2 8 8 8h500l12 -10v-1833l-10 -9q-430 -2 -504 -2l-6 9v165z" />
<glyph unicode="_" horiz-adv-x="974" d="M51 -12q2 10 12 10h855l8 -8v-180q0 -6 -8 -7h-857l-10 9v176z" />
<glyph unicode="`" horiz-adv-x="557" d="M8 1505q-4 10 4 17q102 123 264 161q8 2 13 -4q35 -139 91 -232t167 -204q8 -8 2 -14q-37 -63 -84 -101q-4 -2 -16 2q-304 107 -441 375z" />
<glyph unicode="a" horiz-adv-x="1263" d="M20 516q0 225 111 390t301 165q197 0 305 -194v141l11 12h409q8 -2 8 -10q-14 -467 -14 -608q0 -111 21.5 -177.5t46 -81t41.5 -25.5q12 -8 11 -19q0 -4 -1 -9q-16 -53 -90 -99t-156 -46q-106 0 -182 62.5t-97 170.5q-121 -231 -323 -231q-123 0 -217 84t-139.5 209 t-45.5 266zM442 516q0 -121 41 -198.5t113 -77.5t113 77.5t41 198.5t-41 200t-113 79t-113 -79t-41 -200z" />
<glyph unicode="b" horiz-adv-x="1210" d="M61 10v1452l9 8h397l6 -2q2 -2 2 -6v-606q117 219 316 219q182 0 290.5 -169t108.5 -390q0 -225 -109.5 -390t-300.5 -165q-197 0 -305 195v-144l-10 -12h-395q-9 2 -9 10zM463 516q0 -121 41 -199.5t112.5 -78.5t112.5 78.5t41 199.5t-41 199t-112.5 78t-112.5 -78 t-41 -199z" />
<glyph unicode="c" horiz-adv-x="1067" d="M20 516q0 225 155 386t388 171q188 0 323.5 -74.5t135.5 -212.5q2 -78 -55.5 -141t-143.5 -63q-47 0 -92 12t-51 22q-4 8 -5 19.5t1 31t2 33.5q0 63 -27.5 102.5t-70.5 39.5q-78 0 -120 -102q-32 -78 -33 -169q0 -27 3 -55q10 -104 54 -173t108 -93q59 -23 128 -23h12 q77 2 149.5 25.5t138.5 62.5q16 12 29 2q7 -7 7 -20q0 -5 -1 -12q-10 -39 -44 -89.5t-89.5 -106.5t-146.5 -94t-195 -38q-233 0 -396.5 164t-163.5 395z" />
<glyph unicode="d" horiz-adv-x="1243" d="M0 516q0 225 109.5 390t302.5 165q197 0 305 -194v585l10 11h410q8 0 8 -9v-1050q0 -90 13 -150.5t29.5 -84t34 -36t25.5 -19.5q5 -4 5 -11q0 -5 -3 -11q-16 -53 -90 -99t-155 -46q-106 0 -182.5 62.5t-96.5 170.5q-121 -233 -324 -233q-123 0 -217 84t-139 209t-45 266z M420 516q0 -119 41 -197.5t114 -78.5q72 0 113 77.5t41 198.5t-41 200t-113 79q-74 0 -114.5 -79t-40.5 -200z" />
<glyph unicode="e" horiz-adv-x="1105" d="M20 516.5q0 231.5 163 394t421 162.5q229 0 355 -113.5t126 -242.5q0 -115 -62 -191.5t-157.5 -103.5t-209.5 -35q-30 -2 -59 -2q-81 0 -155 16q53 -150 231 -172q30 -4 61 -3q148 0 302 89q14 10 27 2q14 -10 6 -32q-10 -37 -46 -88.5t-94.5 -107.5t-152.5 -94t-198 -38 q-231 0 -394.5 164t-163.5 395.5zM426 582q29 -3 55 -3q93 0 148 34q70 44 69 130q0 43 -30 72q-29 27 -72 27h-6q0 -2 -2 -2h-6q-25 -4 -50 -19q-92 -55 -106 -239z" />
<glyph unicode="f" horiz-adv-x="837" d="M10 848v174l8 8h117q-1 20 -1 39q0 109 30 194q35 99 102.5 153t147.5 80t172 26q176 0 278.5 -70t102.5 -170q2 -76 -52.5 -129t-136.5 -53q-47 0 -94 13t-53 24q-4 14 -1 22t9 35t6 57q0 106 -78 107q-55 0 -77 -40q-14 -26 -14 -62q0 -19 4 -39q11 -61 24.5 -104.5 t30.5 -82.5h282q8 0 8 -10v-172l-8 -10h-272v-826l-8 -12h-396q-8 2 -8 10v828h-115q-8 0 -8 10z" />
<glyph unicode="g" horiz-adv-x="1220" d="M20 516q0 225 110 390t302 165q199 0 307 -199v146l9 10h395q8 0 8 -10q6 -653 6 -903q1 -18 1 -35q0 -249 -139 -406q-148 -168 -427 -168q-104 0 -192.5 32t-141.5 80t-84 90t-43 77q-14 47 -15 74.5t6 35t19 5.5q14 -2 42 -28t59.5 -55.5t95 -53t141.5 -23.5 q117 0 188.5 77t75.5 177v182q-51 -100 -134 -156.5t-187 -56.5q-184 0 -293 166t-109 387zM440 516q0 -119 41 -194.5t115 -75.5q72 0 113 75.5t41 194.5t-41 199t-113 80q-74 0 -115 -79t-41 -200z" />
<glyph unicode="h" horiz-adv-x="1230" d="M61 1464l9 9h403q0 -6 6 -9v-618q63 117 157.5 173t184.5 56q117 0 199 -94t82 -244v-319q0 -90 16.5 -150.5t38 -84t43 -36t32.5 -20.5q8 -6 8 -15q0 -3 -1 -8q-18 -51 -92 -97t-156 -46q-129 0 -215 85t-86 226v398q0 109 -63 118l-14 2q-51 0 -93 -69 q-41 -66 -41 -160v-549l-8 -12h-395q-8 2 -8 10q-7 1233 -7 1454z" />
<glyph unicode="i" horiz-adv-x="585" d="M-8 930q18 53 92 99t156 46q127 0 205.5 -84t78.5 -227v-752l-8 -12h-410q-10 2 -10 10q16 467 17 608q0 111 -21.5 177.5t-46.5 81t-42 25.5q-13 8 -13 20q0 4 2 8zM33 1321q0 78 69.5 134t168 56t169 -56t70.5 -134q0 -80 -70.5 -135.5t-169 -55.5t-168 55.5 t-69.5 135.5z" />
<glyph unicode="j" horiz-adv-x="626" d="M-266 -283q0 78 54 140.5t136 62.5q47 0 94.5 -12t51.5 -25q4 -14 1 -25.5t-9.5 -44t-6.5 -63.5q0 -123 74 -123q80 0 80 117q0 63 -34 161.5t-34 176.5v936l9 12h395q8 -2 8 -10v-954q0 -606 -453 -607q-172 0 -269 77t-97 181zM109 1321q0 78 69.5 134t167.5 56 q100 0 170 -56t70 -134q0 -80 -70 -135.5t-170 -55.5q-98 0 -167.5 55.5t-69.5 135.5z" />
<glyph unicode="k" horiz-adv-x="1230" d="M61 1464l9 9h401l6 -3q2 -2 2 -6v-600q59 104 152.5 157.5t193.5 53.5q125 0 205 -82t91 -185q2 -15 2 -31q0 -87 -55 -167q-65 -94 -198 -114v-4q4 -10 11.5 -26.5t36 -64t64.5 -89.5t98.5 -92t133.5 -85q18 -8 24 -15q3 -4 3 -10q0 -4 -2 -10q-4 -12 -22 -32 q-39 -43 -117 -78t-158 -35q-100 0 -177 40t-119 96t-69.5 130t-37 129.5t-9.5 102.5q0 45 23 45q152 0 190 112q9 29 10 56q0 50 -32 94q-31 41 -78 41q-84 0 -122 -65.5t-42 -151.5v-572l-8 -12h-395q-8 2 -8 10q-7 1233 -7 1454z" />
<glyph unicode="l" horiz-adv-x="604" d="M61 266v1196l11 11h409l8 -11q2 -909 3 -1050q0 -111 21.5 -177.5t46 -81t41.5 -25.5q13 -8 13 -19q0 -4 -2 -9q-18 -51 -99 -98t-165 -47q-127 0 -207 85t-80 226z" />
<glyph unicode="m" horiz-adv-x="1865" d="M-6 930q16 53 90 99t156 46q109 0 184.5 -62.5t95.5 -172.5q59 121 149.5 178t180.5 57q98 0 173 -65.5t99 -178.5q57 125 149.5 184.5t184.5 59.5q119 0 201 -94t82 -244v-319q0 -90 16.5 -150.5t38 -84t41.5 -36t33 -20.5q8 -5 8 -14q0 -4 -2 -9q-18 -51 -92 -97 t-156 -46q-127 0 -214 85t-87 226v398q0 111 -59 118q-5 1 -11 1q-49 0 -88 -70q-35 -66 -34 -158v-37l16 -512l-10 -12h-410l-8 10l-2 514v146q0 111 -60 118q-5 1 -10 1q-49 0 -88 -70q-35 -66 -35 -158v-549l-10 -12h-410q-8 2 -8 10q14 467 15 608q0 111 -21.5 177.5 t-46.5 81t-41 25.5q-12 8 -12 19q0 5 2 9z" />
<glyph unicode="n" horiz-adv-x="1273" d="M-8 930q16 53 90 99t156 46q109 0 184.5 -64.5t95.5 -174.5q63 123 158.5 181t187.5 58q119 0 201 -94t82 -244q0 -35 -1 -134t-1 -185q0 -90 16.5 -150.5t38 -84t43 -36t33.5 -20.5q8 -5 8 -14q0 -4 -2 -9q-18 -51 -92 -97t-156 -46q-127 0 -214 85t-87 226v398 q0 106 -61 118l-14 2q-51 0 -93 -67q-41 -66 -41 -162v-549l-10 -12h-410q-8 2 -8 10q16 467 17 608q0 111 -21.5 177.5t-47.5 81t-42 25.5q-12 8 -12 19q0 5 2 9z" />
<glyph unicode="o" horiz-adv-x="1187" d="M20 509.5q0 233.5 164 395.5t410 162t409.5 -162t163.5 -395q0 -236 -161.5 -396.5t-411.5 -160.5q-246 0 -410 161.5t-164 395zM424 510q0 -139 43 -232.5t127 -93.5q88 0 129 90.5t41 235.5q0 141 -43 233.5t-127 92.5q-86 0 -128 -91.5t-42 -234.5z" />
<glyph unicode="p" horiz-adv-x="1261" d="M-8 930q18 53 92 99t156 46q106 0 182 -62.5t96 -170.5q121 233 324 233q182 0 290.5 -169t108.5 -390q0 -225 -109.5 -390t-300.5 -165q-197 0 -305 195v-594l-10 -13h-410l-8 11q-2 918 -2 1058q0 111 -18.5 177.5t-41 81t-36.5 25.5q-10 8 -10 18q0 5 2 10zM514 516 q0 -121 41 -199.5t112.5 -78.5t112.5 78.5t41 199.5t-41 199t-112.5 78t-112.5 -78t-41 -199z" />
<glyph unicode="q" horiz-adv-x="1196" d="M20 518q0 225 110 390t300 165q205 0 313 -211v160l9 8h397q0 -6 6 -8v-1460l-8 -11h-395q-8 0 -9 11q-2 250 -2 604q-113 -207 -321 -207q-123 0 -216 83t-138.5 208t-45.5 268zM440 518q0 -121 41 -199.5t113 -78.5t113 78.5t41 199.5t-41 199t-113 78t-113 -78 t-41 -199z" />
<glyph unicode="r" horiz-adv-x="989" d="M-8 928q18 53 92 99t156 46q104 0 178 -59.5t96 -163.5q41 100 111.5 161.5t146.5 61.5q100 0 163.5 -60.5t63.5 -168.5q0 -123 -73.5 -193.5t-182.5 -70.5q-33 0 -64.5 14t-37.5 27q-6 8 -7 16t1 25.5t2 31.5q0 90 -43 90q-70 0 -70 -231v-543l-8 -10h-412q-8 0 -8 10 q16 465 17 606q0 111 -21.5 177.5t-46.5 81t-42 25.5q-13 8 -13 20q0 4 2 8z" />
<glyph unicode="s" horiz-adv-x="1050" d="M20 219q0 78 55.5 132.5t143.5 54.5q49 0 98.5 -11.5t55.5 -23.5q6 -8 7 -19.5t-1 -32t-2 -32.5q0 -59 33.5 -92t87.5 -33q106 0 110 92q0 20 -8 37.5t-25.5 31t-35 23.5t-47 21.5t-52 18.5t-61.5 18.5t-64 19.5q-119 41 -197.5 119t-80.5 190v6q0 150 144.5 242 t316.5 92q197 0 340 -68.5t143 -197.5q2 -76 -52.5 -127t-146.5 -51q-51 0 -96 12t-51 25q-4 8 -5 18t1 30.5t2 35.5q0 61 -26 90q-24 27 -72 26h-7q-43 -2 -69.5 -32.5t-26.5 -63.5q0 -43 35 -74.5t78 -47t119 -38.5q20 -6 30 -8q336 -96 336 -315q0 -117 -86 -196 t-199.5 -108.5t-242.5 -29.5q-76 0 -154 13.5t-154.5 43t-125 83.5t-48.5 126z" />
<glyph unicode="t" horiz-adv-x="778" d="M-10 848v174l8 8h104v156l11 10l393 162l8 -10q2 -143 2 -318h250q6 0 6 -10v-172l-8 -10h-248v-426v-33q0 -25 4 -66q6 -39 21.5 -66.5t32 -40.5t44 -19.5t45 -6.5t48 2t43.5 2q27 0 32 -16q2 -5 2 -11q0 -12 -8 -26q-41 -82 -142 -134t-214 -52q-106 4 -182 47 q-139 84 -140 274v572h-104q-8 0 -8 10z" />
<glyph unicode="u" d="M-8 924q18 53 92 99t156 46q129 0 216 -85t87 -226v-398q0 -111 61 -118q5 -1 10 -1q47 0 86 72q33 59 35 142v563l8 12h412q8 -2 8 -10q-16 -467 -16 -608q0 -111 21.5 -177.5t46 -81t41.5 -25.5q13 -8 13 -19q0 -4 -1 -9q-18 -53 -92 -99t-156 -46q-106 0 -182 62.5 t-97 172.5q-59 -121 -149 -178t-182 -57q-117 0 -199 94t-82 244v319q0 90 -16.5 150.5t-38 84t-43 36t-32.5 19.5q-8 5 -8 15q0 3 1 7z" />
<glyph unicode="v" horiz-adv-x="1122" d="M41 410h2v2v608l8 10h395q8 -2 9 -12v-631q0 -104 17 -150.5t67 -46.5q74 0 126 81t52 243q0 125 -27.5 212t-61.5 117.5t-61.5 53.5t-27.5 33q0 39 73.5 92t175.5 53q133 0 223.5 -114.5t90.5 -360.5q0 -66 -11.5 -139.5t-48 -166.5t-95 -166t-162 -123t-238.5 -50h-12 q-201 0 -347.5 116t-146.5 339z" />
<glyph unicode="w" horiz-adv-x="1761" d="M41 403v7v4v606l8 10h400q10 -2 10 -12v-662q8 -166 110 -166q45 0 78 49.5t33 147.5l2 -2q-2 8 -2 25h2v2v608l8 10h395q8 -2 9 -12v-631q0 -104 17 -150.5t67 -46.5q74 0 126 81t52 243q0 125 -28 212t-61.5 117.5t-61 53.5t-27.5 33q0 39 73.5 92t175.5 53 q133 0 223.5 -114.5t90.5 -360.5q0 -66 -11.5 -139.5t-48 -166.5t-95 -166t-162 -123t-238.5 -50h-12q-246 0 -386 151q-115 -152 -321 -151q-158 0 -273.5 100.5t-144.5 261.5q-8 35 -8 86z" />
<glyph unicode="x" horiz-adv-x="1187" d="M10 195v17q0 252 346 331l-333 477q-6 10 6 10h444q10 0 16 -10l230 -348q45 12 59 42q7 15 7 30.5t-7 31.5q-14 33 -33.5 63.5t-39 55.5t-19.5 27q-2 51 63.5 97t149.5 46q121 0 196.5 -72.5t75.5 -179.5q0 -111 -96 -191.5t-244 -113.5l349 -496q3 -4 3 -7q0 -5 -9 -5 h-453q-12 0 -16 10l-230 355q-61 -16 -71 -60q-3 -12 -2 -24q0 -30 17 -60q24 -41 51.5 -79t27.5 -45q0 -51 -64 -96q-66 -46 -149 -46q-121 0 -196 67t-79 173z" />
<glyph unicode="y" horiz-adv-x="1218" d="M-8 924q18 53 92 99t156 46q129 0 215 -85t86 -226v-385q0 -111 61 -119q5 -1 10 -1q49 0 88 73q35 63 37 153v539l8 10h396q8 0 8 -10q6 -600 6 -873q1 -18 1 -34q0 -249 -139 -406q-148 -168 -427 -168q-137 0 -244.5 56.5t-154 115t-62.5 107.5q-14 47 -16 74.5 t6 34.5t20 5q14 -2 42 -28.5t59.5 -56t95 -54t141.5 -24.5q117 0 188.5 67.5t75.5 165.5v205q-57 -123 -148 -180.5t-183 -57.5q-117 0 -199 94.5t-82 243.5v307q0 90 -16.5 150.5t-38 84t-43 36t-32.5 19.5q-8 5 -8 15q0 3 1 7z" />
<glyph unicode="z" horiz-adv-x="1015" d="M4 772q-3 16 -3 35q0 45 17 103q25 83 107 126q59 33 137 38q23 2 46 2q55 0 112 -9q80 -12 240.5 -27.5t326.5 -15.5q10 0 12 -8q0 -25 2.5 -76t2.5 -91t-7 -75q-14 -94 -122.5 -195.5t-270.5 -191.5q-139 -76 -194 -104h217q78 0 138 6t91 16t55.5 19.5t29.5 17.5 t16.5 10t13.5 -4q35 -29 43 -88q3 -24 3 -46q0 -88 -46 -147q-57 -75 -146 -98q-54 -14 -112 -13q-37 0 -76 5q-295 39 -592 39l-6 8q-10 88 -10 156q0 43 4 78q12 100 153.5 220t290.5 204q47 25 166 73q-86 5 -168 6q-232 0 -442 -43q-8 -2 -13 9q-6 6 -16 61z" />
<glyph unicode="{" horiz-adv-x="434" d="M10 577.5q0 8.5 19 26.5q33 31 49 149.5t2 276.5l-2 31q-14 225 64.5 341t242.5 109q37 0 37 -18q2 -6 -19 -27q-80 -72 -51 -376l2 -31q10 -178 -36 -310.5t-142 -168.5q96 -37 142.5 -169t35.5 -311q-2 -20 -2 -32q-29 -305 51 -377q20 -20 19 -27q0 -16 -37 -18 q-164 -6 -243 110.5t-64 339.5q2 20 2 31q14 160 -1.5 279.5t-49.5 146.5q-19 16 -19 24.5z" />
<glyph unicode="|" horiz-adv-x="323" d="M61 -350l2 1863l9 11h176q8 0 8 -11v-1863q0 -8 -6 -8h-180l-7 2q-2 2 -2 6z" />
<glyph unicode="}" horiz-adv-x="475" d="M33 -336q-2 6 18 27q80 72 51 377l-2 32q-10 178 36 310.5t143 169.5q-96 37 -142.5 169t-36.5 310q2 20 2 31q29 305 -51 376q-20 20 -18 27q0 18 37 18q164 6 242.5 -109.5t64.5 -340.5q-2 -20 -2 -31q-14 -158 2 -276.5t49 -149.5q18 -18 18 -26.5t-18 -24.5 q-35 -27 -50.5 -146.5t-0.5 -279.5l2 -31q14 -223 -65 -339.5t-242 -110.5q-37 2 -37 18z" />
<glyph unicode="~" horiz-adv-x="1220" d="M70 551q16 90 105 137t218 8q47 -14 117 -51t116 -60.5t115.5 -38t116.5 12.5q39 14 66.5 44t42 52.5t18.5 24.5q59 14 118.5 -46.5t43.5 -144.5q-18 -86 -96 -134t-217 -13q-51 12 -120 50t-114 65.5t-113.5 43t-119.5 -17.5q-37 -18 -66 -46.5t-42 -50t-17 -24.5 q-63 -16 -125.5 43.5t-46.5 145.5z" />
<glyph unicode="&#xa2;" horiz-adv-x="866" d="M20 516q0 164 104.5 288t268.5 152l-14 127l8 9h137q10 0 11 -11q-10 -53 -15 -118q133 -14 224.5 -74t91.5 -158q0 -66 -41 -112t-127 -52q-39 -2 -75 9.5t-42 21.5q-6 12 0 68q8 86 -62 94q-121 10 -120 -244q0 -139 69.5 -202.5t173 -48t213.5 88.5q14 10 23 2 q10 -10 6 -26q-20 -72 -108.5 -158t-225.5 -102l12 -136l-8 -10h-137q-8 2 -8 13q8 70 12 137q-160 29 -265.5 153.5t-105.5 288.5z" />
<glyph unicode="&#xa3;" horiz-adv-x="999" d="M20 541q0 6 9 6q18 2 145 -6q-8 8 -40 34.5t-48 44t-31.5 54.5t-15.5 82q0 117 78 191.5t180 100t229 25.5q72 0 145.5 -13t145.5 -43t117 -85t45 -127q0 -76 -54.5 -131.5t-140.5 -55.5q-49 0 -95 12.5t-54 24.5q-6 10 -2 84q10 129 -98 129q-70 0 -89 -63 q-10 -10 -5 -43t8.5 -50.5t15.5 -51t18 -47t18.5 -39t12.5 -27.5l188 16l11 -8l4 -137q0 -10 -10 -10q-94 8 -211 10q-39 -61 -160 -101q209 2 610 2l8 -8v-301q0 -8 -10 -8h-881l-12 8v299q2 6 6 8v2q86 35 123 89q-43 -4 -94 -11l-53 -4l-8 8z" />
<glyph unicode="&#xa8;" horiz-adv-x="903" d="M10 1306.5q0 73.5 59.5 125t143.5 51.5t144.5 -51.5t60.5 -125t-60.5 -125t-144.5 -51.5t-143.5 51.5t-59.5 125zM487 1306.5q0 73.5 59.5 125t143.5 51.5t143.5 -51.5t59.5 -125t-59.5 -125t-143.5 -51.5t-143.5 51.5t-59.5 125z" />
<glyph unicode="&#xa9;" horiz-adv-x="1484" d="M74 518.5q0 274.5 195.5 470t470 195.5t470 -195.5t195.5 -470t-195.5 -470t-470 -195.5t-470 195.5t-195.5 470zM203 518q0 -223 156.5 -379.5t379.5 -156.5q221 0 379 156.5t158 379.5q0 221 -157.5 379t-379.5 158q-223 0 -379.5 -158t-156.5 -379zM367 516 q0 156 107.5 266.5t266.5 118.5q129 0 226.5 -53t97.5 -148q0 -55 -36 -95t-107 -44q-33 -2 -64 7.5t-37 17.5q-6 14 0 57q4 41 -12 74t-39 35q-59 6 -89 -68t-30 -168q0 -119 63.5 -173t156 -42t186.5 76q12 8 18 2q8 -6 6 -23q-18 -68 -106 -146.5t-223 -78.5 q-160 0 -272.5 112.5t-112.5 272.5z" />
<glyph unicode="&#xab;" horiz-adv-x="839" d="M20 492.5q0 17.5 29 50.5q215 215 365 336q23 18 39 8t6 -41q-66 -209 -117 -352q100 -301 119 -355q8 -27 -6.5 -40t-40.5 7q-195 166 -365 336q-29 33 -29 50.5zM377 492.5q0 17.5 26 50.5q215 215 365 336q23 18 39 8t6 -41q-14 -41 -42 -127t-49.5 -149.5 t-25.5 -75.5q100 -301 119 -355q8 -27 -6 -40t-41 7q-182 154 -365 336q-26 33 -26 50.5z" />
<glyph unicode="&#xad;" horiz-adv-x="753" d="M61 430v176q2 10 13 10h608l8 -8v-180q0 -6 -8 -6h-610z" />
<glyph unicode="&#xae;" horiz-adv-x="909" d="M20 837.5q0 180.5 127 307.5t307.5 127t307.5 -127t127 -307.5t-127 -307.5t-307.5 -127t-307.5 127t-127 307.5zM104 837.5q0 -145.5 102.5 -248t248.5 -102.5q143 0 246.5 102.5t103.5 248t-103.5 248t-246.5 102.5q-145 0 -248 -102.5t-103 -248zM233 625v428l3 4 q113 18 227 18q88 0 156.5 -37t68.5 -106q0 -84 -110 -127q51 -94 106 -127q20 -12 2 -31q-43 -47 -104 -47q-33 0 -58.5 12.5t-40 29.5t-24.5 43t-14.5 42t-7.5 38.5t-3 25.5l-26 2v-168l-5 -7h-165q-5 3 -5 7zM408 866h38q63 0 64 60q0 57 -57 57q-16 0 -45 -4v-113z" />
<glyph unicode="&#xb4;" horiz-adv-x="561" d="M10 1229q-6 6 2 14q111 111 167.5 204t90.5 232q4 6 13 4q162 -39 264 -161q4 -2 5 -8.5t-1 -8.5q-137 -268 -440 -375q-12 -4 -17 -2q-47 38 -84 101z" />
<glyph unicode="&#xb8;" horiz-adv-x="542" d="M6 -383q2 0 39 -9t84 -17.5t94 -9.5t79 20.5t30 68.5q-4 51 -78 67.5t-201 -13.5q-10 0 -6 8q100 201 143 272l9 6h26l6 -6v-151q182 25 269 -91q68 -90 26 -188q-47 -113 -200 -119q-23 -2 -45 0q-154 8 -250 109q-39 45 -25 53z" />
<glyph unicode="&#xbb;" horiz-adv-x="839" d="M25 139q18 53 118 355q-4 12 -25.5 75.5t-49 149.5t-41.5 127q-10 31 6 41t39 -8q150 -121 364 -336q27 -33 27 -50.5t-27 -50.5q-182 -182 -364 -336q-27 -20 -41 -7t-6 40zM379 139q18 53 119 355q-51 143 -117 352q-10 31 6 41t39 -8q150 -121 365 -336 q29 -33 28.5 -50.5t-28.5 -50.5q-170 -170 -365 -336q-27 -20 -41 -7t-6 40z" />
<glyph unicode="&#xe6;" horiz-adv-x="2322" d="M20 516q0 225 111 390t301 165q197 0 305 -194v141l11 12h407q8 -2 8 -10q-4 -461 -8 -610q0 -80 22.5 -120t53.5 -36t65 29q-49 115 -49 233q0 231 163 394t421 163q229 0 355 -113.5t126 -242.5q0 -115 -62.5 -191.5t-157.5 -103.5t-209 -35t-214 14 q53 -150 230.5 -172t363.5 86q14 10 27 2q14 -10 6 -32q-10 -37 -46 -88.5t-94.5 -107.5t-152.5 -94t-199 -38q-236 0 -399 168q-72 -84 -156 -126t-211 -44q-109 -2 -191.5 69.5t-101.5 163.5q-121 -231 -323 -231q-123 0 -217 84t-139.5 209t-45.5 266zM442 516 q0 -121 41 -198.5t113 -77.5t113 77.5t41 198.5t-41 200t-113 79t-113 -79t-41 -200zM1653 582q133 -12 202.5 31.5t69.5 129.5q0 43 -30.5 72t-77.5 27q0 -2 -2 -2h-7q-25 -4 -49 -19q-92 -55 -106 -239z" />
<glyph unicode="&#x2c6;" horiz-adv-x="849" d="M13.5 1140.5q-9.5 12.5 9.5 35.5q322 369 323 370l12 6h142q12 0 20 -8l314 -375q18 -27 5.5 -37t-40.5 1l-367 133q-264 -90 -377 -127q-32 -11 -41.5 1.5z" />
<glyph unicode="&#x2d8;" horiz-adv-x="878" d="M31 1509q8 4 26.5 -9t50 -35.5t73.5 -45t111.5 -39t149.5 -16.5q82 0 153 16.5t112 39t71.5 45t48 35.5t25.5 9q39 -20 -16 -127q-57 -115 -166 -181t-227.5 -66t-228.5 67.5t-167 179.5q-51 109 -16 127z" />
<glyph unicode="&#x2da;" horiz-adv-x="550" d="M10 1382.5q0 104.5 79 178t189.5 73.5t188.5 -73.5t78 -178t-78 -179.5t-188.5 -75t-189.5 75t-79 179.5zM178 1382q0 -49 30 -84.5t70.5 -35.5t69.5 34.5t29 85.5q0 49 -29 82t-69 33q-43 0 -72 -32t-29 -83z" />
<glyph unicode="&#x2dc;" horiz-adv-x="1052" d="M10 1210q10 127 107 211q90 76 229 72q94 -4 237.5 -63.5t221.5 -61.5q57 -2 102 26.5t71 59.5t36 33q23 2 28 -64q10 -129 -77 -215q-96 -96 -287 -80q-82 8 -224.5 71t-199.5 65q-53 2 -96 -15.5t-64.5 -40t-39 -42t-25.5 -19.5q-25 -5 -19 63z" />
<glyph unicode="&#x2dd;" horiz-adv-x="1050" d="M10 1229q-6 6 2 14q111 111 167.5 204t90.5 232q4 6 13 4q162 -39 264 -161q4 -2 5 -8.5t-1 -8.5q-137 -268 -440 -375q-12 -4 -17 -2q-47 38 -84 101zM502 1229q-6 6 2 14q111 111 167 204t91 232q4 6 12 4q162 -39 264 -161q4 -2 5 -8.5t-1 -8.5q-137 -268 -440 -375 q-12 -4 -16 -2q-47 38 -84 101z" />
<glyph unicode="&#x400;" horiz-adv-x="1110" d="M114 2009q-4 10 4 17q102 123 264 161q8 2 13 -4q35 -139 91 -232t167 -204q8 -8 2 -14q-37 -63 -84 -101q-4 -2 -16 2q-304 107 -441 375zM61 512l2 944l13 10h977q12 0 16 -10t7 -26.5t4 -63.5t-10 -88t-51 -87t-105.5 -72.5t-164 -27.5t-163.5 11l-66 12 q0 -12 -1 -111.5t-1 -158.5h338l10 -10v-205l-12 -11h-338v-147q2 -94 65.5 -143t149.5 -52.5t172 17t144 57.5q31 18 43 4t6 -53q-6 -43 -41 -98.5t-94.5 -112.5t-159 -96t-215.5 -39q-250 0 -387.5 164t-137.5 393z" />
<glyph unicode="&#x401;" horiz-adv-x="1110" d="M61 512l2 944l13 10h977q12 0 16 -10t7 -26.5t4 -63.5t-10 -88t-51 -87t-105.5 -72.5t-164 -27.5t-163.5 11l-66 12q0 -12 -1 -111.5t-1 -158.5h338l10 -10v-205l-12 -11h-338v-147q2 -94 65.5 -143t149.5 -52.5t172 17t144 57.5q31 18 43 4t6 -53q-6 -43 -41 -98.5 t-94.5 -112.5t-159 -96t-215.5 -39q-250 0 -387.5 164t-137.5 393zM109 1714q0 74 59 125t143 51t143.5 -51t59.5 -125t-59.5 -125t-143.5 -51t-143 51t-59 125zM586 1714q0 74 59.5 125t143 51t143 -51t59.5 -125t-59.5 -125t-143 -51t-143 51t-59.5 125z" />
<glyph unicode="&#x403;" horiz-adv-x="1036" d="M61 313l2 1141l11 10q461 41 913 0q12 0 16.5 -10t8.5 -25.5t5 -61.5t-10.5 -86t-52.5 -85t-106 -74q-68 -29 -154 -29.5t-137 13.5l-51 12q0 -229 6 -686q2 -90 19.5 -150.5t39 -84t41 -34.5t30.5 -19.5t5 -22.5q-20 -59 -103 -112.5t-171 -53.5q-135 0 -223.5 89 t-88.5 269zM289 1616q-6 6 2 14q111 111 167 204t91 232q4 6 12 5q162 -39 264 -162q4 -2 5 -8.5t-1 -8.5q-137 -268 -440 -374q-12 -4 -16 -2q-47 37 -84 100z" />
<glyph unicode="&#x404;" horiz-adv-x="1294" d="M20 739q0 315 202 541.5t515 228.5q240 2 393.5 -103.5t153.5 -270.5q0 -90 -61.5 -162t-165.5 -72q-68 0 -114 21.5t-44 52.5q16 113 -19.5 194.5t-131.5 81.5q-111 0 -186 -116.5t-70 -278.5h325l10 -10v-223l-12 -11h-323q0 -166 73.5 -282.5t182.5 -116.5 q96 0 131.5 82t19.5 194q-2 31 44 52.5t114 21.5q104 0 165.5 -71.5t61.5 -161.5q0 -166 -153.5 -271.5t-393.5 -103.5q-307 2 -512 232t-205 552z" />
<glyph unicode="&#x405;" horiz-adv-x="1304" d="M12 305q-6 90 58.5 162t167.5 72q59 0 124.5 -20.5t77.5 -37.5q4 -12 3 -22t-5 -37t-4 -47q2 -125 95.5 -176.5t186.5 -7t95 152.5q0 35 -17.5 65.5t-41 52t-68.5 46t-80 39t-95 39t-93 39.5q-180 80 -242 125q-141 104 -149 276q-6 137 83 250t225 172t281 63 q256 6 427 -88t171 -272q2 -109 -56 -171t-177 -62q-63 0 -114.5 16t-59.5 33q-2 14 -1 27.5t5 49t4 56.5q4 63 -27.5 107t-79 56.5t-96.5 6.5t-86 -45t-41 -97q0 -186 361 -294q451 -137 450 -431q0 -121 -62.5 -212t-164.5 -140t-215 -72.5t-234 -23.5q-96 0 -191 16.5 t-189.5 53t-156 109.5t-69.5 171z" />
<glyph unicode="&#x406;" horiz-adv-x="636" d="M-8 1364q18 53 105 101t175 48q131 0 217 -81.5t86 -245.5v-1176l-10 -10h-436l-8 10v1112q-6 68 -23.5 113t-37 62.5t-38 27.5t-26.5 17.5t-4 21.5z" />
<glyph unicode="&#x407;" horiz-adv-x="606" d="M-141 1743q0 74 59 125t143 51t144.5 -51t60.5 -125t-60.5 -125t-144.5 -51t-143 51t-59 125zM-8 1364q18 53 105 101t175 48q131 0 217 -81.5t86 -245.5v-1176l-10 -10h-436l-8 10v1112q-6 68 -23.5 113t-37 62.5t-38 27.5t-26.5 17.5t-4 21.5zM336 1743q0 74 59.5 125 t143.5 51t143 -51t59 -125t-59 -125t-143 -51t-143.5 51t-59.5 125z" />
<glyph unicode="&#x408;" horiz-adv-x="958" d="M10 238q0 84 59.5 149.5t147.5 65.5q53 0 106.5 -12.5t57.5 -24.5q4 -16 1 -28.5t-9 -48.5t-6 -69q0 -131 71 -131q88 0 88 125q0 70 -37.5 175.5t-37.5 187.5v512q-4 74 -27 119t-48.5 56t-42 22.5t-9.5 27.5q18 53 105 101t175 48q129 0 211 -80.5t82 -246.5v-57 q0 -48 -1 -179t-1 -340q0 -651 -485 -651q-188 0 -294 83t-106 196z" />
<glyph unicode="&#x409;" horiz-adv-x="2168" d="M-10 158q0 10 31.5 42.5t76.5 110.5t91.5 205t78 372t33.5 564v2l8 8q233 63 530.5 64.5t530.5 -64.5l8 -10v-469q348 53 561 -100.5t213 -388.5q0 -246 -162.5 -392.5t-473.5 -146.5q-156 0 -274 53t-182.5 140.5t-95 184.5t-30.5 202l-2 684h-225q-2 -39 -5.5 -136.5 t-6.5 -169t-11 -180t-22.5 -189.5t-35 -177.5t-54 -164t-76.5 -127t-104.5 -89t-135.5 -29.5q-111 0 -188.5 73t-77.5 128zM1378 412q2 -80 47 -144.5t121 -64.5q78 0 122 76.5t44 173.5q0 160 -94 241.5t-240 53.5v-336z" />
<glyph unicode="&#x40a;" horiz-adv-x="2131" d="M-8 1370q18 53 102 102.5t170 49.5q125 0 209 -83t84 -247q0 -29 -1 -139.5t-1 -157.5h338l-6 557l10 10h434l8 -10v-469q348 53 561.5 -100.5t213.5 -388.5q0 -246 -163 -392.5t-474 -146.5q-156 0 -273 53t-181.5 140.5t-94 184.5t-29.5 202l-2 65h-346l2 -590l-10 -10 h-422l-8 10q4 1118 4 1120q-8 82 -32 132.5t-47.5 61.5t-37.5 20.5t-8 25.5zM1339 412q2 -80 47.5 -144.5t120.5 -64.5q78 0 122 76.5t44 173.5q0 160 -94 241.5t-240 53.5v-336z" />
<glyph unicode="&#x40c;" horiz-adv-x="1396" d="M1032 1741q-6 6 2 14q111 111 167.5 204t90.5 232q4 6 13 4q162 -39 264 -161q4 -2 5 -8.5t-1 -8.5q-137 -268 -440 -375q-12 -4 -17 -2q-47 38 -84 101zM-8 1364q18 53 105 101t175 48q131 0 217 -81.5t86 -245.5l-10 -328q8 4 33 8t31 6q-4 250 112.5 432.5 t333.5 208.5q139 16 231.5 -57.5t75.5 -200.5q-10 -84 -54 -135t-100.5 -64.5t-110.5 -13.5t-91 12.5t-37 20.5v19v20q0 6 -1 18.5t-5 18.5t-10 14.5t-17.5 11.5t-25.5 3q-59 0 -92 -82t-31 -205q92 2 144.5 -55.5t111.5 -186.5q119 -248 207 -346q66 -70 127 -90 q8 -14 2 -66.5t-69.5 -116t-151.5 -73.5q-115 -12 -204 26t-144.5 101.5t-95.5 165.5t-59.5 189t-33.5 200q-45 10 -76 -8l15 -623l-11 -10h-440l-8 10v1112q-6 68 -23.5 113t-37 62.5t-38 27.5t-26.5 17.5t-4 21.5z" />
<glyph unicode="&#x40d;" horiz-adv-x="1439" d="M-176 2013q-4 10 4 17q102 123 264 161q8 2 13 -4q35 -139 91 -232t167 -204q8 -8 2 -14q-37 -63 -84 -101q-4 -2 -16 2q-304 107 -441 375zM-8 1364q18 53 105 101t175 48q131 0 217 -81.5t86 -245.5v-416l-18 -172l414 856q6 10 14 10h377l10 -10l6 -1444l-10 -10h-426 l-8 10l10 582l21 196q-49 -90 -198 -384.5t-204 -393.5q-4 -10 -16 -10h-418l-8 10v1112q-6 68 -23.5 113t-37 62.5t-38 27.5t-26.5 17.5t-4 21.5z" />
<glyph unicode="&#x40e;" horiz-adv-x="1310" d="M-8 1346q18 55 98 106t170 51q141 0 239.5 -94t104.5 -248l8 -231q2 -86 47.5 -121t94.5 -3t65 114q14 102 -12 530l10 10h451q10 0 10 -10q0 -594 -14 -817q-18 -305 -169 -486.5t-403 -201.5q-223 -18 -369.5 58.5t-154.5 246.5q-6 106 60.5 168.5t177.5 62.5 q66 0 123 -33.5t53 -64.5q-37 -109 -7.5 -172.5t95.5 -63.5q31 0 56.5 12.5t41.5 38t29.5 51t19.5 67.5t10 71t4 78v71q0 22 -2 66.5t-2 50.5q-74 -98 -186.5 -128.5t-215.5 2t-180 131t-85 239.5l-6 102q-4 123 -33 196t-60.5 90.5t-53 30t-15.5 30.5zM195.5 1887 q17.5 83 87.5 126q70 45 149.5 28.5t124.5 -87.5q74 -115 -8 -223q-27 -39 24 -62q96 -41 187 4q57 27 24 64q-82 111 -16 221q41 74 122 94.5t152 -22.5q70 -43 88.5 -121t-24.5 -164q-70 -131 -246 -185.5t-360.5 -9.5t-272.5 179q-49 75 -31.5 158z" />
<glyph unicode="&#x410;" horiz-adv-x="1411" d="M12 10q352 1102 353 1104q39 113 30.5 155t-27 69.5t-14.5 41.5q18 57 109.5 99.5t183.5 42.5q119 0 221.5 -81t159.5 -241q39 -106 131 -404t166 -542l74 -244l-6 -10h-463q-10 0 -12 10l-52 217h-362l-45 -217q-4 -10 -15 -10h-428zM561 504h240l-121 594 q-20 -86 -63.5 -310.5t-55.5 -283.5z" />
<glyph unicode="&#x411;" horiz-adv-x="1308" d="M61 535l2 923l11 10q526 53 1085 0q12 0 16.5 -10t8.5 -25.5t5 -60.5t-10.5 -84t-52.5 -84t-106 -74q-68 -29 -194 -29.5t-218 13.5l-92 12v-184q184 27 327.5 2.5t243 -89t150.5 -158t51 -203.5q0 -246 -162.5 -392.5t-474.5 -146.5q-156 0 -274.5 53t-185 140.5 t-98.5 185t-32 201.5zM516 412q2 -84 42 -146.5t124 -62.5q78 0 122 76.5t44 173.5q0 154 -90 213t-242 30v-284z" />
<glyph unicode="&#x412;" horiz-adv-x="1320" d="M61 551v2v2v2v2v2v2v2v2v2v2v2v2v3v2v2v2v2v2v2v2v2v2v2v2v2v2v2v2v2v2v2v2v2v3v2v2v2v2v2v2v2v2v2v2v2v2v2v2v2v2v2v2v2v3v2v2v2v4v2v2v2v2v2v2v2v2v2v2v2v4v2v2v3v2v2v2v2v4v2v2v2v2v2v4v2v2v2v2v2v4v3v2v2v4v2v2v2v2v4v2v2v2v4v2v2v2v4v3v2v4v2v2v2v4v2v2v4v2v2v4v2v2 v4v3v2v4v2v2v4v2v2v4v2v2v4v2v4v2v2v5v2v4v2v2v4v2v4v2v2v4v2v4v2v5v2v4v2v2v4v2v4v2v4v2v4v2v4v3v4v2v4v2v4v2v4v2v4v2v4v2v4v3v4v4v2v4v2v4v2v4v2v4v4v2v5v2v4v4v2v4v2v4v4v2v4v2v4v5v2v4v2v4v4v2v4v4v2v4v4v2v5v4v2v4v4v2v4v4v2v4v4v2v5v4v2v4v4v4v2v4v4v2v4v4v5v2v4v4v4 v2v4v4v4v2v4v4v5v4v2v4v4v4v2v4v4v4v4v2v5v4v4v4v4v2v4v4v4v4v4v2v5v4v4v4v4v4v2v4v4v4v4v5v4v4v2v4v4v4v21q0 12 11 12q219 63 549 63q106 0 201.5 -17t183.5 -56t140 -115t52 -180q0 -100 -53 -187.5t-117 -111.5q-12 -8 2 -13q129 -45 199.5 -150.5t70.5 -219.5 q0 -131 -53 -230.5t-145 -158t-204 -87t-241 -28.5q-133 0 -237.5 38t-171 97.5t-109.5 140t-60.5 159.5t-17.5 161zM510 403q8 -203 176 -202q84 0 131 59t47 160q0 137 -104.5 206.5t-249.5 41.5v-265zM510 893q135 0 199.5 62.5t64.5 152.5q0 123 -84 160t-180 12v-387z " />
<glyph unicode="&#x413;" horiz-adv-x="1028" d="M61 313l2 1141l11 10q461 41 913 0q12 0 16.5 -10t8.5 -25.5t5 -61.5t-10.5 -86t-52.5 -85t-106 -74q-68 -29 -154 -29.5t-137 13.5l-51 12q0 -229 6 -686q2 -90 19.5 -150.5t39 -84t41 -34.5t30.5 -19.5t5 -22.5q-20 -59 -103 -112.5t-171 -53.5q-135 0 -223.5 89 t-88.5 269z" />
<glyph unicode="&#x414;" horiz-adv-x="1609" d="M10 260q0 4 6 10q2 2 9 6q29 20 53 43t75.5 111t86 204t61.5 331t25 485v2l8 8q233 63 529 64.5t530 -64.5l8 -10l-2 -1141h190q8 0 8 -12l2 -320q0 -358 -366 -358q-29 0 -69 9.5t-40 23.5v348h-661q0 -4 1 -37t1 -39q0 -141 -95.5 -224t-263.5 -83q-27 0 -61.5 9 t-34.5 24v610zM524 313l2 -4h430v910h-227q0 -759 -205 -906z" />
<glyph unicode="&#x415;" horiz-adv-x="1110" d="M61 512l2 944l13 10h977q12 0 16 -10t7 -26.5t4 -63.5t-10 -88t-51 -87t-105.5 -72.5t-164 -27.5t-163.5 11l-66 12q0 -12 -1 -111.5t-1 -158.5h338l10 -10v-205l-12 -11h-338v-147q2 -94 65.5 -143t149.5 -52.5t172 17t144 57.5q31 18 43 4t6 -53q-6 -43 -41 -98.5 t-94.5 -112.5t-159 -96t-215.5 -39q-250 0 -387.5 164t-137.5 393z" />
<glyph unicode="&#x416;" horiz-adv-x="2097" d="M-6 1255q-16 127 83 200t240 58q211 -23 335 -216t132 -433q6 -2 22.5 -6t24.5 -8l-10 602l10 10h437l8 -10l-12 -602q8 4 25.5 8t23.5 6q6 152 59 291t161.5 241.5t252.5 116.5q141 14 237.5 -58.5t79.5 -199.5q-10 -84 -54 -135t-100.5 -64.5t-110.5 -13.5t-91 12.5 t-37 20.5q0 6 2 26.5t1 32t-6 27t-20.5 22.5t-39.5 9q-63 2 -115.5 -95.5t-50.5 -211.5q133 -18 235 -234q53 -111 165 -257t216 -179q8 -14 2 -66.5t-69.5 -116t-151.5 -73.5q-111 -12 -202 21.5t-151.5 98t-105.5 159t-67.5 192.5t-32.5 211q-31 8 -55 -8l12 -623l-10 -10 h-437l-8 10l10 623q-25 16 -55 8q-12 -141 -47 -262t-98.5 -225.5t-169 -157.5t-242.5 -37q-88 10 -151.5 73.5t-69.5 116t2 66.5q104 33 216 179.5t165 256.5q102 217 233 234q2 115 -49 213t-114 96q-10 0 -18.5 -3t-14.5 -6t-11.5 -10.5t-8.5 -11.5t-5 -14t-3 -14.5 t-2 -15.5t-1 -15v-15v-14q0 -8 -37 -20.5t-91 -12.5t-110.5 13.5t-100.5 64.5t-54 135z" />
<glyph unicode="&#x417;" horiz-adv-x="1269" d="M20 326q0 104 63.5 167.5t172.5 63.5q61 0 115.5 -20.5t58.5 -40.5q2 -14 1 -26.5t-3 -40.5t-2 -50q0 -84 46 -139.5t108 -55.5q123 0 177 108.5t-4.5 217t-211.5 108.5h-54q-10 0 -10 15v215l10 10h93q82 0 134 42t60 101.5t-6 119t-62.5 101.5t-113.5 42 q-68 0 -119 -50.5t-51 -130.5v-116q-8 -20 -57.5 -42t-108.5 -22q-106 0 -171 65.5t-65 168.5q0 100 57.5 177t148.5 118t184.5 60t185.5 19q117 0 223.5 -21.5t203.5 -68.5t152.5 -138t51.5 -214q-10 -246 -275 -313q297 -92 297 -336q0 -123 -60.5 -217t-159.5 -146.5 t-208.5 -77t-224.5 -24.5q-92 0 -185.5 19.5t-184.5 59.5t-148.5 116t-57.5 176z" />
<glyph unicode="&#x418;" horiz-adv-x="1439" d="M-8 1364q18 53 105 101t175 48q131 0 217 -81.5t86 -245.5v-416l-18 -172l414 856q6 10 14 10h377l10 -10l6 -1444l-10 -10h-426l-8 10l10 582l21 196q-49 -90 -198 -384.5t-204 -393.5q-4 -10 -16 -10h-418l-8 10v1112q-6 68 -23.5 113t-37 62.5t-38 27.5t-26.5 17.5 t-4 21.5z" />
<glyph unicode="&#x419;" horiz-adv-x="1439" d="M-8 1364q18 53 105 101t175 48q131 0 217 -81.5t86 -245.5v-416l-18 -172l414 856q6 10 14 10h377l10 -10l6 -1444l-10 -10h-426l-8 10l10 582l21 196q-49 -90 -198 -384.5t-204 -393.5q-4 -10 -16 -10h-418l-8 10v1112q-6 68 -23.5 113t-37 62.5t-38 27.5t-26.5 17.5 t-4 21.5zM260.5 1864q18.5 82 87.5 125q70 45 151 25.5t124 -91.5q70 -113 -13 -223q-31 -39 23 -62q98 -43 186 0q57 27 27 64q-82 109 -12 221q43 72 123.5 91.5t150.5 -25.5q70 -41 87 -121t-28 -164q-55 -96 -176 -150.5t-253 -55.5t-259 52.5t-190 153.5 q-47 78 -28.5 160z" />
<glyph unicode="&#x41a;" horiz-adv-x="1396" d="M-8 1364q18 53 105 101t175 48q131 0 217 -81.5t86 -245.5l-10 -328q8 4 33 8t31 6q-4 250 112.5 432.5t333.5 208.5q139 16 231.5 -57.5t75.5 -200.5q-10 -84 -54 -135t-100.5 -64.5t-110.5 -13.5t-91 12.5t-37 20.5v19v20q0 6 -1 18.5t-5 18.5t-10 14.5t-17.5 11.5 t-25.5 3q-59 0 -92 -82t-31 -205q92 2 144.5 -55.5t111.5 -186.5q119 -248 207 -346q66 -70 127 -90q8 -14 2 -66.5t-69.5 -116t-151.5 -73.5q-115 -12 -204 26t-144.5 101.5t-95.5 165.5t-59.5 189t-33.5 200q-45 10 -76 -8l15 -623l-11 -10h-440l-8 10v1112 q-6 68 -23.5 113t-37 62.5t-38 27.5t-26.5 17.5t-4 21.5z" />
<glyph unicode="&#x41b;" horiz-adv-x="1462" d="M10 158q0 10 32 42.5t78 110.5t92 205t78 372t34 564v2l8 8q233 63 529 64.5t530 -64.5l8 -10l-2 -1442l-11 -10h-423l-9 10v1209h-227q-2 -39 -5 -136.5t-6 -169t-11.5 -180t-22.5 -189.5t-34.5 -177.5t-54.5 -164t-77 -127t-104.5 -89t-135.5 -29.5q-111 0 -188.5 73 t-77.5 128z" />
<glyph unicode="&#x41c;" horiz-adv-x="1726" d="M-6 1370q18 53 114.5 102.5t194.5 49.5q70 0 126 -22.5t103.5 -73t76 -94.5t73.5 -120q45 -78 96 -176t80 -155l29 -60l352 631q4 8 14 10h396l10 -10l6 -1442l-12 -10h-418l-10 10l6 656l39 211l-322 -611q-4 -8 -26 -8h-58q-25 0 -28 8l-336 617l39 -191l12 -682 l-10 -10h-432l-11 10q14 1118 15 1120q-2 66 -17.5 110t-35 62.5t-37 28.5t-26.5 17.5t-3 21.5z" />
<glyph unicode="&#x41d;" horiz-adv-x="1415" d="M-8 1370q18 53 102 102.5t170 49.5q125 0 209 -83t84 -247q0 -29 -1 -139.5t-1 -157.5h356l-4 557l11 10h425l9 -10l-2 -1442l-11 -10h-424l-8 10l4 590h-360l2 -590l-10 -10h-422l-8 10q4 1118 4 1120q-8 82 -32 132.5t-47.5 61.5t-37.5 20.5t-8 25.5z" />
<glyph unicode="&#x41e;" horiz-adv-x="1460" d="M20 731.5q0 323.5 198 550.5t511 227q315 0 513 -227t198 -551q0 -326 -194.5 -550t-516.5 -224q-315 0 -512 225.5t-197 549zM483 731q0 -195 70 -370t176 -175q76 0 134.5 87t86 209t27.5 249q0 201 -69.5 375t-178 174t-177.5 -174t-69 -375z" />
<glyph unicode="&#x41f;" horiz-adv-x="1378" d="M63 1452l9 10q233 63 617 64.5t618 -64.5l8 -10l-2 -1442l-10 -10h-424l-9 10v1204h-362v-1204l-8 -10h-424q-10 0 -10 10z" />
<glyph unicode="&#x420;" horiz-adv-x="1206" d="M61 311l2 1121l11 10q27 8 73 19.5t187 28.5t278 13q250 -8 417 -131t167 -338q0 -72 -17.5 -139.5t-64.5 -139t-120.5 -122.5t-197.5 -81t-284 -24v-98q2 -90 19.5 -150.5t38 -84t41 -34.5t30.5 -19.5t4 -22.5q-20 -59 -103 -112.5t-171 -53.5q-135 0 -222.5 89 t-87.5 269zM512 739q117 0 187.5 90.5t70.5 209t-72.5 190t-185.5 53.5v-543z" />
<glyph unicode="&#x421;" horiz-adv-x="1325" d="M20 739q0 315 202 541.5t515 228.5q240 2 393.5 -103.5t153.5 -270.5q0 -90 -61.5 -162t-165.5 -72q-68 0 -114 21.5t-44 52.5q16 113 -19.5 194.5t-131.5 81.5q-88 0 -154 -90t-91.5 -211t-10.5 -227q23 -188 113.5 -303t207.5 -140.5t242 7t221 119.5q41 35 39 -13 q-2 -14 -6 -35q-8 -31 -25.5 -71.5t-62.5 -100t-105.5 -107.5t-161 -84t-219.5 -38q-299 -6 -507 227t-208 555z" />
<glyph unicode="&#x422;" horiz-adv-x="1302" d="M13 1206q-3 43 4.5 87t43 92.5t97.5 80.5q90 47 192.5 50.5t337 -18t438.5 -23.5l134 2q12 0 16 -11q4 -12 8 -31.5t6 -72.5t-9 -98t-51 -90.5t-108 -65.5q-94 -29 -272 -4l8 -694q4 -104 27.5 -166t50.5 -76t43 -25.5t10 -27.5q-18 -55 -104 -105.5t-174 -50.5 q-131 0 -218 84t-87 254l6 836q-199 4 -365 -29q-10 -2 -14 10q-2 2 -9.5 25.5t-10.5 66.5z" />
<glyph unicode="&#x423;" horiz-adv-x="1329" d="M-8 1346q18 55 98 106t170 51q141 0 239.5 -94t104.5 -248l8 -231q2 -86 47.5 -121t94.5 -3t65 114q14 102 -12 530l10 10h451q10 0 10 -10q0 -594 -14 -817q-18 -305 -169 -486.5t-403 -201.5q-223 -18 -369.5 58.5t-154.5 246.5q-6 106 60.5 168.5t177.5 62.5 q66 0 123 -33.5t53 -64.5q-37 -109 -7.5 -172.5t95.5 -63.5q31 0 56.5 12.5t41.5 38t29.5 51t19.5 67.5t10 71t4 78v71q0 22 -2 66.5t-2 50.5q-74 -98 -186.5 -128.5t-215.5 2t-180 131t-85 239.5l-6 102q-4 123 -33 196t-60.5 90.5t-53 30t-15.5 30.5z" />
<glyph unicode="&#x424;" horiz-adv-x="1730" d="M10 963q0 252 218 394t632 144h2h2h2q854 0 854 -538q0 -233 -158.5 -381t-474.5 -150q-4 -74 10.5 -128t37 -79.5t44 -42t35 -30t7.5 -27.5q-20 -59 -103.5 -112.5t-171.5 -53.5q-135 0 -222 89t-87 269v117q-309 0 -468 148t-159 381zM418 961q0 -123 53 -203t164 -88 v579q-109 -14 -163 -91.5t-54 -196.5zM1085 670q111 8 164.5 88t53.5 203q0 119 -54.5 196.5t-163.5 91.5v-579z" />
<glyph unicode="&#x425;" horiz-adv-x="1456" d="M12 281q-10 160 115 304t334 206l-414 661q-6 14 10 14h518l17 -12l278 -543q68 43 88.5 115t1 140.5t-47 120.5t-48.5 71q-2 6 -2 20.5t15.5 36t38 42t64.5 37.5t95 22q147 14 251 -75t118 -231q16 -162 -108 -308t-337 -212l441 -680q8 -10 -4 -10h-553l-15 10 l-286 541q-63 -49 -80 -114.5t5.5 -125t47.5 -100.5t47 -61q12 -16 -11.5 -61.5t-89 -89.5t-151.5 -44q-133 0 -230.5 95.5t-107.5 230.5z" />
<glyph unicode="&#x426;" horiz-adv-x="1550" d="M-8 1370q18 53 102 102.5t170 49.5q125 0 209 -83t84 -247l-2 -924h342v1186l8 10h424q10 0 10 -10l2 -1186h189q8 0 8 -12l2 -279q0 -358 -366 -358q-29 0 -69 9.5t-40 23.5v321q-211 -27 -495.5 -16.5t-450.5 59.5l-8 11l6 1103q-8 82 -32 132.5t-47.5 61.5t-37.5 20.5 t-8 25.5z" />
<glyph unicode="&#x427;" horiz-adv-x="1454" d="M-8 1346q20 55 102 106t172 51q141 0 236.5 -94t95.5 -248v-297q0 -113 80 -129q76 -14 137 60q53 61 53 151l2 502l9 14h438q10 -4 10 -12q-2 -68 4 -1040q4 -104 27.5 -166t50.5 -76t43 -25.5t10 -27.5q-16 -53 -108 -104.5t-180 -51.5q-131 0 -218.5 84t-87.5 254v348 q-59 -127 -182 -185.5t-242.5 -40t-210 117t-90.5 254.5v208q0 123 -26.5 196t-57 90.5t-52 30t-15.5 30.5z" />
<glyph unicode="&#x428;" horiz-adv-x="2011" d="M-8 1370q18 53 102 102.5t170 49.5q125 0 209 -83t84 -247l-2 -928h256v1190l8 10h412q10 0 10 -10l2 -1190h260v1190l8 10h424q10 0 11 -10l2 -1427l-9 -11q-231 -63 -909 -65t-911 65l-8 11l6 1103q-8 82 -32 132.5t-47.5 61.5t-37.5 20.5t-8 25.5z" />
<glyph unicode="&#x429;" horiz-adv-x="2154" d="M-8 1370q18 53 102 102.5t170 49.5q125 0 209 -83t84 -247l-2 -928h254v1190l8 10h416q10 0 10 -10l2 -1190h258v1190l8 10h424q10 0 11 -10l2 -1186h186q8 0 8 -12l2 -279q0 -358 -366 -358q-29 0 -69 9.5t-40 23.5v319q-352 -37 -860 -22.5t-690 67.5l-8 11l6 1103 q-8 82 -32 132.5t-47.5 61.5t-37.5 20.5t-8 25.5z" />
<glyph unicode="&#x42a;" horiz-adv-x="1675" d="M13 1210q-3 41 4.5 85t43 91.5t97.5 79.5q72 37 156.5 42t249.5 -8t278 -13q33 0 37 -17v-2l2 -485q348 53 561 -100.5t213 -388.5q0 -246 -163 -392.5t-474 -146.5q-156 0 -274.5 53t-185 140.5t-98.5 184.5t-32 202l-2 604q-213 4 -379 -29q-10 -2 -14 10 q-2 2 -9.5 25.5t-10.5 64.5zM881 412q2 -80 47 -144.5t121 -64.5q78 0 121.5 76.5t43.5 173.5q0 160 -94 241.5t-239 53.5v-336z" />
<glyph unicode="&#x42b;" horiz-adv-x="1867" d="M61 1452l11 10h436l8 -10v-469q178 27 321.5 -4t231.5 -103.5t135 -171t47 -210.5q0 -244 -156.5 -391.5t-441.5 -147.5q-156 0 -274.5 53t-185 140.5t-98.5 184.5t-32 202zM516 412q2 -84 39 -146.5t111 -62.5q66 0 105.5 77.5t39.5 172.5q0 164 -77 242.5t-218 52.5 v-336zM1296 266v1184l11 10h438l8 -10q2 -877 2 -1018q0 -111 21.5 -180.5t46 -88t42 -32.5t11.5 -31q-16 -51 -103 -98t-171 -47q-129 0 -217.5 85t-88.5 226z" />
<glyph unicode="&#x42c;" horiz-adv-x="1310" d="M61 1452l11 10h436l8 -10v-469q348 53 561 -100.5t213 -388.5q0 -246 -162.5 -392.5t-474.5 -146.5q-156 0 -274.5 53t-185 140.5t-98.5 184.5t-32 202zM516 412q2 -80 47 -144.5t121 -64.5q78 0 122 76.5t44 173.5q0 160 -94 241.5t-240 53.5v-336z" />
<glyph unicode="&#x42d;" horiz-adv-x="1304" d="M20 330q0 90 61.5 161.5t166.5 71.5q68 0 114 -21.5t44 -52.5q-16 -113 19.5 -194.5t131.5 -81.5q109 0 182.5 116.5t73.5 282.5h-324q-12 0 -12 11v223l10 10h326q4 162 -70.5 278.5t-185.5 116.5q-96 0 -132 -82t-19 -194q2 -31 -44.5 -52.5t-113.5 -21.5 q-104 0 -166 71.5t-62 162.5q0 166 154 271t393 103q313 -2 515 -228t202 -542q0 -322 -205 -552t-512 -232q-240 -2 -393.5 103.5t-153.5 271.5z" />
<glyph unicode="&#x42e;" horiz-adv-x="2072" d="M-8 1370q18 53 102 102.5t170 49.5q125 0 209 -83t84 -247q0 -29 -1 -139.5t-1 -157.5h133q31 264 216.5 439t457.5 175q313 0 501.5 -226t188.5 -552q0 -328 -185.5 -551t-504.5 -223q-285 0 -474.5 183.5t-205.5 459.5h-131l2 -590l-10 -10h-422l-8 10q4 1118 4 1120 q-8 82 -32 132.5t-47.5 61.5t-37.5 20.5t-8 25.5zM1137 731q0 -125 23.5 -245.5t76.5 -210t125 -89.5q76 0 129 88t75.5 207t22.5 250q0 129 -23.5 250t-76.5 210t-127 89t-127 -89t-75.5 -210t-22.5 -250z" />
<glyph unicode="&#x42f;" horiz-adv-x="1308" d="M-7 177.5q1 21.5 3 25.5q279 127 389 391q-137 55 -215 171t-78 267q0 215 167 338t419 131q137 4 277.5 -11t211.5 -32l70 -18q10 0 10 -10v-1418l-10 -12h-430q-8 0 -8 12v549h-76q-23 -287 -152 -460t-356 -146q-55 6 -99 33.5t-67.5 61.5t-40 70t-15.5 57.5z M516 1034q4 -113 87 -189.5t196 -72.5v508q-117 18 -202 -55.5t-81 -190.5z" />
<glyph unicode="&#x430;" horiz-adv-x="1263" d="M20 516q0 225 111 390t301 165q197 0 305 -194v141l11 12h409q8 -2 8 -10q-14 -467 -14 -608q0 -111 21.5 -177.5t46 -81t41 -25.5t10.5 -28q-16 -53 -90 -99t-156 -46q-106 0 -182 62.5t-97 170.5q-121 -231 -323 -231q-123 0 -217 84t-139.5 209t-45.5 266zM442 516 q0 -121 41 -198.5t113 -77.5t113 77.5t41 198.5t-41 200t-113 79t-113 -79t-41 -200z" />
<glyph unicode="&#x431;" horiz-adv-x="1124" d="M29 479q-49 694 288 854q104 49 218 69.5t165.5 34t61.5 58.5q10 37 29 39q139 23 219 -56t59.5 -189.5t-133.5 -164.5q-51 -25 -145.5 -33t-177.5 -16t-163.5 -34.5t-131 -104.5t-56.5 -209q31 100 122 168t198 74q227 12 374.5 -129.5t147.5 -372.5t-145.5 -370.5 t-397.5 -139.5q-152 0 -272.5 80t-185 196.5t-74.5 245.5zM424 467q0 -276 137 -277q139 0 139 277q0 279 -139 278q-137 1 -137 -278z" />
<glyph unicode="&#x432;" horiz-adv-x="1114" d="M61 401v5v8v606q0 10 9 10q195 47 467 47q88 0 166.5 -13t151.5 -42t116 -85t43 -132q0 -72 -40 -123t-93 -70q100 -31 156.5 -98.5t56.5 -163.5q0 -188 -154 -290.5t-373 -102.5q-135 0 -237.5 42t-158.5 109.5t-83 142t-27 150.5zM475 334q8 -141 109 -141 q57 0 90 40.5t33 108.5q0 57 -44.5 88t-113.5 31q-53 0 -74 -2v-125zM475 645h39q129 0 129 109q0 102 -123 102q-29 0 -45 -6v-205z" />
<glyph unicode="&#x433;" horiz-adv-x="864" d="M61 1020q0 2 4.5 6t6.5 4q184 31 381 31q250 0 372 -25q16 -2 21 -20q2 -8 5 -22.5t2 -52.5t-13.5 -70.5t-48 -66.5t-93.5 -50q-80 -25 -217 -4v-336q0 -111 21.5 -177.5t47 -81t42 -25.5t10.5 -28q-18 -51 -95 -98t-159 -47q-125 0 -205 85t-80 226z" />
<glyph unicode="&#x434;" horiz-adv-x="1355" d="M10 160v6q0 10 20.5 22.5t49.5 33t66.5 91t68.5 183.5q20 74 37.5 204.5t26.5 225.5l8 94l10 10q422 94 893 0q6 0 6 -8v-774h141q6 0 6 -12v-220l3 -2q0 -328 -318 -327q-27 0 -61.5 8t-34.5 22v283h-514q0 -4 1 -16.5t1 -16.5q0 -131 -82 -205.5t-236 -74.5 q-29 0 -60.5 8t-31.5 22v443zM557 248h227v594h-153q-31 -373 -60 -533q-10 -47 -14 -61z" />
<glyph unicode="&#x435;" horiz-adv-x="1095" d="M20 516.5q0 231.5 163 394t421 162.5q229 0 355 -113.5t126 -242.5q0 -115 -62 -191.5t-157.5 -103.5t-209 -35t-214.5 14q53 -150 230.5 -172t363.5 86q14 10 27 2q14 -10 6 -32q-10 -37 -46 -88.5t-94.5 -107.5t-152.5 -94t-198 -38q-231 0 -394.5 164t-163.5 395.5z M426 582q133 -12 202.5 31.5t69.5 129.5q0 43 -30.5 72t-77.5 27q0 -2 -2 -2h-6q-25 -4 -50 -19q-92 -55 -106 -239z" />
<glyph unicode="&#x436;" horiz-adv-x="1828" d="M-8 100.5q-4 12.5 1 19.5t23 15q78 37 131.5 94.5t75 106.5t49 109.5t52.5 93.5q78 98 196 82h2q-25 115 -53 145q-25 27 -61 27q-20 0 -35 -7.5t-20 -25t-6 -28.5t1 -34v-22q0 -23 -30.5 -35t-71.5 -12q-98 0 -160.5 58t-62.5 158.5t70.5 165t182.5 64.5q96 0 174 -46 t125.5 -122t76 -152.5t40.5 -156.5q12 -4 17 -6v430l8 8h397q0 -6 6 -8v-430q6 2 15 6q8 86 51 189.5t141 195.5t223 92q113 0 184.5 -64.5t71.5 -165t-62.5 -158.5t-162.5 -58q-41 0 -71.5 12t-30.5 35v22q2 23 1 33t-6.5 27.5t-19.5 26t-35 8.5q-35 0 -59.5 -31 t-33.5 -61.5t-19 -82.5l-19 3q135 18 215 -82q27 -33 63 -121t91 -161t155 -122q25 -12 25 -24.5t-25 -42.5q-37 -45 -108.5 -79t-149.5 -34q-117 0 -193.5 48t-106 117.5t-46 139.5t-36 122t-52.5 56v-426l-8 -10h-395q-8 0 -8 10v426q-31 -2 -49.5 -39t-27.5 -90 t-31.5 -115.5t-54.5 -115.5t-102.5 -88t-171.5 -35q-78 0 -149.5 34t-108.5 79q-18 20 -22 32.5z" />
<glyph unicode="&#x437;" horiz-adv-x="1024" d="M20 221q0 78 54.5 132.5t138.5 54.5q49 0 96 -11.5t53 -23.5q6 -8 7.5 -19.5t-0.5 -32t-2 -32.5q0 -59 30.5 -92t77.5 -33q53 0 85 33.5t32 81.5q0 53 -31 96t-110 43h-48q-8 0 -8 10v190l8 9h72q59 0 88 37.5t29 83.5q0 49 -26.5 82.5t-80 33.5t-86 -32.5t-32.5 -92.5 q0 -12 2 -33.5t1 -31.5t-8 -19q-6 -12 -53 -24.5t-96 -12.5q-84 0 -138.5 55.5t-54.5 131.5q0 72 47.5 127t122 83.5t150.5 43t149 14.5q127 0 232.5 -25.5t187.5 -100.5t82 -191q0 -172 -221 -226q233 -66 234 -241q0 -117 -84 -196t-195 -108.5t-236 -29.5 q-72 0 -148.5 13.5t-151 43t-122 83.5t-47.5 126z" />
<glyph unicode="&#x438;" d="M-8 924q18 53 92 99t156 46q129 0 216 -85t87 -226v-398q0 -111 61 -118q53 -8 96 71q33 59 35 142v563l8 12h412q8 -2 8 -10q-16 -467 -16 -608q0 -111 21.5 -177.5t46 -81t42 -25.5t11.5 -28q-18 -53 -92 -99t-156 -46q-106 0 -182 62.5t-97 172.5q-59 -121 -149 -178 t-182 -57q-117 0 -199 94t-82 244v319q0 90 -16.5 150.5t-38 84t-43 36t-32.5 20t-7 21.5z" />
<glyph unicode="&#x439;" d="M-8 924q18 53 92 99t156 46q129 0 216 -85t87 -226v-398q0 -111 61 -118q53 -8 96 71q33 59 35 142v563l8 12h412q8 -2 8 -10q-16 -467 -16 -608q0 -111 21.5 -177.5t46 -81t42 -25.5t11.5 -28q-18 -53 -92 -99t-156 -46q-106 0 -182 62.5t-97 172.5q-59 -121 -149 -178 t-182 -57q-117 0 -199 94t-82 244v319q0 90 -16.5 150.5t-38 84t-43 36t-32.5 20t-7 21.5zM159.5 1474.5q18.5 81.5 88.5 124.5q70 45 150.5 26t123.5 -91q70 -113 -12 -223q-31 -39 22 -62q98 -43 187 0q57 27 26 64q-82 109 -12 221q43 72 124 91.5t151 -26.5 q70 -41 87 -120.5t-28 -163.5q-55 -96 -176 -150.5t-253 -55.5t-259 52t-191 154q-47 78 -28.5 159.5z" />
<glyph unicode="&#x43a;" horiz-adv-x="1232" d="M-8 930q18 53 92 99t156 46q125 0 204.5 -85t79.5 -226v-172l8 4q4 2 9 2q6 51 24.5 109.5t53 125t79.5 120t113 88t145 34.5q113 0 183.5 -64.5t70.5 -165t-62.5 -158.5t-160.5 -58q-41 0 -72.5 12t-31.5 35q0 2 1 21.5t0 30.5t-5.5 26.5t-16.5 24.5t-31 12 q-53 6 -83.5 -49.5t-34.5 -123.5q121 16 196 -79q25 -33 61 -121t92 -161t155 -122q25 -12 25.5 -24.5t-23.5 -42.5q-41 -45 -111 -79t-150 -34q-117 0 -192.5 48t-106 119t-47 140.5t-35 120.5t-53.5 55v-426l-8 -12h-412q-8 2 -8 10q16 467 17 608q0 111 -21.5 177.5 t-46.5 81t-42 26t-11 27.5z" />
<glyph unicode="&#x43b;" horiz-adv-x="1230" d="M10 100q0 10 15.5 25.5t39 38t58.5 97.5t65 188q45 164 72 571q0 10 8 10q424 94 897 0h-2q6 0 6 -8v-1010l-8 -10h-395q-8 0 -8 10v830h-146q-25 -403 -49 -533q-63 -352 -340 -352q-90 0 -151.5 51t-61.5 92z" />
<glyph unicode="&#x43c;" horiz-adv-x="1574" d="M10 100q0 14 12.5 29.5t32 37t47 95.5t54.5 187q20 90 27 232t3 241l-4 98l8 10h431l10 -8l184 -383h6l201 385q2 6 10 6h459q6 0 6 -8l16 -1012l-8 -10h-397q-8 0 -8 10q2 182 2 391l20 222l-260 -605q-6 -16 -26 -16h-52q-16 0 -24 16l-207 525q0 -129 -10 -215 q-49 -367 -318 -367q-90 0 -152.5 49t-62.5 90z" />
<glyph unicode="&#x43d;" horiz-adv-x="1251" d="M-8 930q18 53 92 99t156 46q127 0 206.5 -85t79.5 -226v-119h201v375l10 10h393q8 0 9 -10v-606q0 -90 14 -150.5t33.5 -84t39 -36t30 -20.5t4.5 -23q-16 -51 -90 -95t-156 -44q-127 0 -207 83t-80 224v138h-201v-394l-10 -12h-410l-8 10q14 467 15 608 q0 111 -21.5 177.5t-46.5 81t-42 26t-11 27.5z" />
<glyph unicode="&#x43e;" horiz-adv-x="1187" d="M20 509.5q0 233.5 164 395.5t410 162t409.5 -162t163.5 -395q0 -236 -161.5 -396.5t-411.5 -160.5q-246 0 -410 161.5t-164 395zM424 510q0 -139 43 -232.5t127 -93.5q88 0 129 90.5t41 235.5q0 141 -43 233.5t-127 92.5q-86 0 -128 -91.5t-42 -234.5z" />
<glyph unicode="&#x43f;" horiz-adv-x="1177" d="M61 12v1010l9 8q227 45 519 46t521 -46q0 -6 6 -8v-1010l-8 -10h-395q-8 0 -8 10v830h-230v-830l-10 -10h-395q-9 0 -9 10z" />
<glyph unicode="&#x440;" horiz-adv-x="1261" d="M-8 930q18 53 92 99t156 46q106 0 182 -62.5t96 -170.5q121 233 324 233q182 0 290.5 -169t108.5 -390q0 -225 -109.5 -390t-300.5 -165q-197 0 -305 195v-594l-10 -13h-410l-8 11q-2 918 -2 1058q0 111 -18.5 177.5t-41 81t-36.5 26t-8 27.5zM514 516q0 -121 41 -199.5 t112.5 -78.5t112.5 78.5t41 199.5t-41 199t-112.5 78t-112.5 -78t-41 -199z" />
<glyph unicode="&#x441;" horiz-adv-x="1067" d="M20 516q0 225 155 386t388 171q188 0 323.5 -74.5t135.5 -212.5q2 -78 -55.5 -141t-143.5 -63q-47 0 -92 12t-51 22q-4 8 -5 19.5t1 31t2 33.5q0 63 -27.5 102.5t-70.5 39.5q-78 0 -120 -101.5t-30 -224.5q10 -104 54 -173t107.5 -93.5t140.5 -22.5t149.5 25.5 t138.5 62.5q16 12 29 2q10 -10 6 -32q-10 -39 -44 -89.5t-89.5 -106.5t-146.5 -94t-195 -38q-233 0 -396.5 164t-163.5 395z" />
<glyph unicode="&#x442;" horiz-adv-x="1038" d="M10 1010v14q0 4 4 8q180 35 421 36t364 -10t200 -22q16 -2 21 -20q6 -25 6 -60q2 -94 -59.5 -145t-129 -59.5t-135.5 2.5h-2v-338q0 -111 21.5 -177.5t46.5 -81t42 -25.5t11 -28q-18 -53 -93 -99t-157 -46q-125 0 -204.5 85t-79.5 226v500l-267 2q-6 0 -6 8z" />
<glyph unicode="&#x443;" horiz-adv-x="1218" d="M-8 924q18 53 92 99t156 46q129 0 215 -85t86 -226v-357q0 -111 61 -118q55 -8 98 71q35 63 37 154v510l8 10h396q8 0 8 -10q6 -596 6 -868q10 -272 -138.5 -440.5t-426.5 -168.5q-137 0 -244.5 56.5t-154 115t-62.5 107.5q-14 47 -16 74.5t6 35t20 4.5q14 -2 42 -27.5 t59.5 -55t95 -53t141.5 -23.5q117 0 188.5 76.5t75.5 177.5v204q-57 -123 -148 -180t-183 -57q-117 0 -199 94t-82 244v278q0 90 -16.5 150.5t-38 84t-43 36t-32.5 20t-7 21.5z" />
<glyph unicode="&#x444;" horiz-adv-x="1826" d="M20 518q0 145 41 268t132.5 205t220.5 82q195 0 299 -196v145l6 8h397l6 -2q2 -2 2 -6v-150q113 203 297 203q182 0 283.5 -167t101.5 -392q0 -229 -102 -392t-293 -163q-186 0 -287 178v-577l-2 -11h-395h-4q-2 0 -6 3.5t-4 7.5q-2 244 -4 592q-106 -195 -303 -195 q-125 0 -214.5 84t-130.5 208t-41 267zM440 518q0 -125 34 -201.5t104 -76.5q72 0 105.5 76.5t33.5 201.5q0 276 -139 277q-70 0 -104 -77t-34 -200zM1110 516q0 -125 34 -201.5t103 -76.5q72 0 105.5 76.5t33.5 201.5q0 276 -139 277q-70 0 -103.5 -77t-33.5 -200z" />
<glyph unicode="&#x445;" horiz-adv-x="1181" d="M10 195q-12 266 346 348l-333 477q-6 10 6 10h444q10 0 16 -10l230 -348q45 12 59.5 41.5t0 62.5t-34 63.5t-39 55.5t-19.5 27q-2 51 63.5 97t149.5 46q121 0 196.5 -72.5t75.5 -179.5q0 -111 -96 -191.5t-244 -113.5l349 -496q8 -12 -6 -12h-453q-12 0 -16 10l-230 355 q-61 -16 -70.5 -59.5t14 -84.5t51.5 -79t28 -42q2 -53 -63.5 -99t-149.5 -46q-121 0 -196 67t-79 173z" />
<glyph unicode="&#x446;" horiz-adv-x="1333" d="M-8 928q18 53 92 99t156 46q127 0 206.5 -85t79.5 -226v-555h215v811l9 10h395q8 -2 8 -10v-811h162q6 0 6 -8v-185q0 -170 -79 -248.5t-236 -78.5q-29 0 -63 8t-34 22v260q-379 -59 -786 23l-8 10q-2 465 -2 606q0 111 -21.5 177.5t-46.5 81t-42 26t-11 27.5z" />
<glyph unicode="&#x447;" horiz-adv-x="1226" d="M-8 924q18 53 92 99t156 46q129 0 215 -85t86 -226v-123q0 -121 57 -133q49 -12 82 59q23 49 22 117v340l11 12h409q8 -2 8 -10q-16 -467 -16 -608q0 -111 21.5 -177.5t47 -81t42 -25.5t10.5 -28q-16 -53 -90 -99t-156 -46q-127 0 -207 85t-80 226v140 q-92 -129 -276 -130q-137 0 -217 89.5t-80 246.5q0 90 -16.5 150.5t-38 84t-43 36t-32.5 20t-7 21.5z" />
<glyph unicode="&#x448;" horiz-adv-x="1765" d="M-8 928q18 53 92 99t156 46q127 0 205.5 -84t78.5 -227v-557h185v813l8 10h379q8 -2 8 -10v-813h188v813l11 10h393q8 -2 8 -10v-1010q0 -8 -6 -8q-209 -47 -769 -48t-808 48q-8 0 -8 10v606q0 111 -21.5 177.5t-46.5 81t-42 26t-11 27.5z" />
<glyph unicode="&#x449;" horiz-adv-x="1884" d="M-8 928q18 53 92 99t156 46q127 0 206.5 -85t79.5 -226v-557h183v813l8 10h379q8 -2 8 -10v-811h188v811l11 10h393q10 -2 10 -10v-811h158q8 0 8 -8v-183l2 -2q0 -328 -318 -327q-29 0 -63.5 8t-34.5 22v252q-293 -25 -722 -16.5t-619 47.5h2q-6 6 -4 10q-2 465 -2 606 q0 111 -21.5 177.5t-46.5 81t-42 26t-11 27.5z" />
<glyph unicode="&#x44a;" horiz-adv-x="1286" d="M10 795v227l6 8q127 45 315.5 45t338.5 -45q8 0 8 -10v-225q98 12 164 12q170 0 297 -113.5t127 -287.5q0 -195 -150.5 -322t-359.5 -127q-135 0 -235.5 42t-153 110.5t-77 141.5t-24.5 150v383h-248q-8 3 -8 11zM678 338q8 -145 94 -145q106 0 107 221q0 88 -46.5 143 t-113.5 55q-20 0 -41 -4v-270z" />
<glyph unicode="&#x44b;" horiz-adv-x="1624" d="M61 399v2v2v3v2v2v2v2v2v2v2v2v2v2v2v2v2v2v2v2v2v2v2v2v3v2v2v2v2v2v2v2v2v2v2v2v2v2v2v2v2v4v2v2v3v2v2v2v2v2v2v4v2v2v2v2v2v2v4v2v2v2v2v5v2v2v2v4v2v2v2v4v2v2v2v4v2v2v2v5v2v2v4v2v2v4v2v2v4v2v2v4v2v4v2v3v4v2v2v4v2v4v2v4v2v2v4v2v4v3v4v2v4v2v4v2v4v2v4v2v4v2v4 v3v4v2v4v2v4v2v4v2v4v4v2v4v2v5v2v4v4v2v4v2v4v4v2v4v4v2v5v2v4v4v2v4v4v2v4v4v4v2v5v4v2v4v4v2v4v4v4v2v4v4v5v2v4v4v4v2v4v4v4v2v4v4v5v4v2v4v4v4v4v4v2v4v4v5v4v4v4v2v4v4v4v4v4v4v2v19l9 10h395q8 -2 8 -12v-225q86 14 164 14q115 0 213 -57q53 164 155.5 241.5 t208.5 77.5q119 0 201 -94t82 -244v-319q0 -90 16.5 -150.5t38 -84t42 -36t32.5 -19.5t6 -22q-18 -53 -92 -99t-156 -46q-127 0 -214 85t-87 226v398q0 121 -55 120.5t-88 -106.5q104 -115 104 -275q0 -195 -143 -321.5t-350 -126.5q-135 0 -235.5 42t-152.5 110.5t-77 141 t-25 150.5zM473 356q4 -164 88 -163q96 0 96 221q0 90 -37.5 143t-105.5 53q-20 0 -41 -4v-250z" />
<glyph unicode="&#x44c;" horiz-adv-x="1081" d="M61 399v2v2v3v2v2v2v2v2v2v2v2v2v2v2v2v2v2v2v2v2v2v2v2v3v2v2v2v2v2v2v2v2v2v2v2v2v2v2v2v2v4v2v2v3v2v2v2v2v2v2v4v2v2v2v2v2v2v4v2v2v2v2v5v2v2v2v4v2v2v2v4v2v2v2v4v2v2v2v5v2v2v4v2v2v4v2v2v4v2v2v4v2v4v2v3v4v2v2v4v2v4v2v4v2v2v4v2v4v3v4v2v4v2v4v2v4v2v4v2v4v2v4 v3v4v2v4v2v4v2v4v2v4v4v2v4v2v5v2v4v4v2v4v2v4v4v2v4v4v2v5v2v4v4v2v4v4v2v4v4v4v2v5v4v2v4v4v2v4v4v4v2v4v4v5v2v4v4v4v2v4v4v4v2v4v4v5v4v2v4v4v4v4v4v2v4v4v5v4v4v4v2v4v4v4v4v4v4v2v19l9 10h395q8 -2 8 -12v-225q90 14 164 14q170 0 297 -113.5t127 -290.5 q0 -195 -150.5 -321.5t-359.5 -126.5q-135 0 -235.5 42t-152.5 110.5t-77 141t-25 150.5zM473 336q8 -143 94 -143q106 0 107 221q0 88 -45 142t-115 54q-16 0 -41 -4v-270z" />
<glyph unicode="&#x44d;" horiz-adv-x="1083" d="M20 238q0 80 53.5 138t143.5 58q55 0 97 -15.5t40 -43.5q-8 -84 19 -127q37 -59 116 -60q154 0 166 205h-254q-8 0 -8 10v203l8 8h254q-14 227 -182 228q-68 -6 -98 -58q-27 -47 -19 -129q2 -29 -40 -44t-97 -15q-90 0 -144.5 59.5t-51.5 137.5q2 76 47 132t116.5 86.5 t143 45t147.5 16.5h2h2q262 0 436.5 -182t139.5 -418q-16 -227 -182 -371.5t-400 -140.5q-102 2 -199.5 27.5t-176.5 90.5t-79 159z" />
<glyph unicode="&#x44e;" horiz-adv-x="1714" d="M-8 930q18 51 99 98t165 47q125 0 200.5 -84t75.5 -227v-119h91q37 188 179 308t349 120q242 0 392.5 -160.5t150.5 -396.5q0 -240 -147.5 -399.5t-395.5 -159.5q-213 0 -356.5 126t-176.5 323h-86v-394l-8 -12h-403q-8 2 -8 10v608q0 111 -21.5 177.5t-46.5 81t-42 26 t-11 27.5zM1014 516q0 -72 5 -124t18.5 -101t42 -75t71.5 -26q45 0 73.5 24t42 74t17.5 100t4 128q0 158 -27.5 242t-109.5 84t-109.5 -85t-27.5 -241z" />
<glyph unicode="&#x44f;" horiz-adv-x="1146" d="M12 111.5q2 11.5 29 27.5q123 78 278 293q-113 37 -181 111.5t-68 181.5q0 166 152.5 259t357.5 93q121 0 245.5 -12t188.5 -25l63 -10q8 0 8 -8v-1010l-8 -10h-395q-8 0 -8 10v387q-14 -6 -26.5 -43t-23 -85t-35 -104t-60 -103.5t-104.5 -78t-161 -30.5q-127 0 -231 113 q-23 32 -21 43.5zM471 717q0 -133 137 -133h66v268q-45 4 -70 4q-57 0 -95 -35.5t-38 -103.5z" />
<glyph unicode="&#x450;" horiz-adv-x="1095" d="M155 1573q-4 10 4 17q102 123 264 161q8 2 13 -4q35 -139 91 -232t167 -204q8 -8 2 -14q-37 -63 -84 -101q-4 -2 -16 2q-304 107 -441 375zM20 516.5q0 231.5 163 394t421 162.5q229 0 355 -113.5t126 -242.5q0 -115 -62 -191.5t-157.5 -103.5t-209 -35t-214.5 14 q53 -150 230.5 -172t363.5 86q14 10 27 2q14 -10 6 -32q-10 -37 -46 -88.5t-94.5 -107.5t-152.5 -94t-198 -38q-231 0 -394.5 164t-163.5 395.5zM426 582q133 -12 202.5 31.5t69.5 129.5q0 43 -30.5 72t-77.5 27q0 -2 -2 -2h-6q-25 -4 -50 -19q-92 -55 -106 -239z" />
<glyph unicode="&#x451;" horiz-adv-x="1095" d="M20 516.5q0 231.5 163 394t421 162.5q229 0 355 -113.5t126 -242.5q0 -115 -62 -191.5t-157.5 -103.5t-209 -35t-214.5 14q53 -150 230.5 -172t363.5 86q14 10 27 2q14 -10 6 -32q-10 -37 -46 -88.5t-94.5 -107.5t-152.5 -94t-198 -38q-231 0 -394.5 164t-163.5 395.5z M117 1306.5q0 73.5 59.5 125t143 51.5t143 -51.5t59.5 -125t-59.5 -125t-143 -51.5t-143 51.5t-59.5 125zM426 582q133 -12 202.5 31.5t69.5 129.5q0 43 -30.5 72t-77.5 27q0 -2 -2 -2h-6q-25 -4 -50 -19q-92 -55 -106 -239zM594 1306.5q0 73.5 59.5 125t143.5 51.5 t143 -51.5t59 -125t-59 -125t-143 -51.5t-143.5 51.5t-59.5 125z" />
<glyph unicode="&#x453;" horiz-adv-x="864" d="M61 1020q0 2 4.5 6t6.5 4q184 31 381 31q250 0 372 -25q16 -2 21 -20q2 -8 5 -22.5t2 -52.5t-13.5 -70.5t-48 -66.5t-93.5 -50q-80 -25 -217 -4v-336q0 -111 21.5 -177.5t47 -81t42 -25.5t10.5 -28q-18 -51 -95 -98t-159 -47q-125 0 -205 85t-80 226zM186 1229q-6 6 2 14 q111 111 167.5 204t90.5 232q4 6 13 4q162 -39 264 -161q4 -2 5 -8.5t-1 -8.5q-137 -268 -440 -375q-12 -4 -17 -2q-47 38 -84 101z" />
<glyph unicode="&#x454;" horiz-adv-x="1075" d="M27 473q-35 236 139 418t436 182h2h2q76 -2 147.5 -16.5t143.5 -45t117 -87t47 -131.5q2 -78 -52.5 -137.5t-144.5 -59.5q-55 0 -97 15.5t-40 43.5q8 82 -18 129q-31 51 -99 58q-168 0 -182 -228h254q8 0 8 -8v-203l-8 -10h-254q12 -205 166 -205q80 0 117 60 q27 43 18 127q-2 29 40 44t97 15q90 0 143.5 -58.5t53.5 -137.5q0 -94 -79 -159t-176 -90.5t-200 -27.5q-233 -4 -399 140.5t-182 371.5z" />
<glyph unicode="&#x455;" horiz-adv-x="1050" d="M20 219q0 78 55.5 132.5t143.5 54.5q49 0 98.5 -11.5t55.5 -23.5q6 -8 7 -19.5t-1 -32t-2 -32.5q0 -59 33.5 -92t87.5 -33q106 0 110 92q0 20 -8 37.5t-25.5 31t-35 23.5t-47 21.5t-52 18.5t-61.5 18.5t-64 19.5q-119 41 -197.5 119t-80.5 190v6q0 150 144.5 242 t316.5 92q197 0 340 -68.5t143 -197.5q2 -76 -52.5 -127t-146.5 -51q-51 0 -96 12t-51 25q-4 8 -5 18t1 30.5t2 35.5q0 61 -25.5 89.5t-79.5 26.5q-43 -2 -69.5 -32.5t-26.5 -63.5q0 -43 35 -74.5t78 -47t119 -38.5q20 -6 30 -8q336 -96 336 -315q0 -117 -86 -196 t-199.5 -108.5t-242.5 -29.5q-76 0 -154 13.5t-154.5 43t-125 83.5t-48.5 126z" />
<glyph unicode="&#x456;" horiz-adv-x="606" d="M12 930q18 53 92 99t156 46q127 0 206 -84t79 -227v-752l-8 -12h-410q-10 2 -10 10q16 467 16 608q0 111 -21.5 177.5t-46 81t-42 26t-11.5 27.5zM53 1321q0 78 70 134t168 56t168.5 -56t70.5 -134q0 -80 -70.5 -135.5t-168.5 -55.5t-168 55.5t-70 135.5z" />
<glyph unicode="&#x457;" horiz-adv-x="606" d="M-154 1306.5q0 73.5 59.5 125t143.5 51.5t144.5 -51.5t60.5 -125t-60.5 -125t-144.5 -51.5t-143.5 51.5t-59.5 125zM8 930q16 53 90 99t156 46q127 0 207 -85t80 -226v-752l-11 -12h-409q-8 2 -8 10q14 467 14 608q0 111 -21.5 177.5t-46 81t-41 26t-10.5 27.5z M324 1306.5q0 73.5 59 125t143 51.5t143.5 -51.5t59.5 -125t-59.5 -125t-143.5 -51.5t-143 51.5t-59 125z" />
<glyph unicode="&#x458;" horiz-adv-x="626" d="M-266 -283q0 78 54 140.5t136 62.5q47 0 94.5 -12t51.5 -25q4 -14 1 -25.5t-9.5 -44t-6.5 -63.5q0 -123 74 -123q80 0 80 117q0 63 -34 161.5t-34 176.5v936l9 12h395q8 -2 8 -10v-954q0 -606 -453 -607q-172 0 -269 77t-97 181zM109 1321q0 78 69.5 134t167.5 56 q100 0 170 -56t70 -134q0 -80 -70 -135.5t-170 -55.5q-98 0 -167.5 55.5t-69.5 135.5z" />
<glyph unicode="&#x459;" horiz-adv-x="1740" d="M-10 100q0 10 16.5 25.5t40 38t58 97.5t65.5 188q45 164 70 571q2 10 10 10q408 90 874 0q10 -2 11 -12v-225q86 14 161 14q172 0 298 -113.5t126 -290.5q0 -195 -149.5 -321.5t-360.5 -126.5q-135 0 -234 42t-151.5 110.5t-77 141.5t-24.5 150v4v9v430h-129 q-23 -385 -49 -533q-66 -352 -340 -352q-90 0 -152.5 51t-62.5 92zM1135 344q8 -152 96 -151q104 0 104 221q0 88 -45 142t-114 54q-20 0 -41 -4v-262z" />
<glyph unicode="&#x45a;" horiz-adv-x="1730" d="M-8 930q18 53 92 99t156 46q125 0 204.5 -85t79.5 -226v-119h187v375l8 10h395q8 -2 8 -12v-225q90 14 164 14q170 0 297 -113.5t127 -290.5q0 -195 -150.5 -321.5t-359.5 -126.5q-135 0 -235.5 42t-152.5 110.5t-76.5 141.5t-24.5 150v4v3h-187v-394l-8 -12h-412 q-8 2 -8 10q16 467 17 608q0 111 -21.5 177.5t-46.5 81t-42 26t-11 27.5zM1122 336q8 -143 95 -143q106 0 106 221q0 88 -45 142t-115 54q-16 0 -41 -4v-270z" />
<glyph unicode="&#x45c;" horiz-adv-x="1232" d="M506 1299q-6 6 2 14q111 111 167.5 204t90.5 232q4 6 13 4q162 -39 264 -161q4 -2 5 -8.5t-1 -8.5q-137 -268 -440 -375q-12 -4 -17 -2q-47 38 -84 101zM-8 930q18 53 92 99t156 46q125 0 204.5 -85t79.5 -226v-172l8 4q4 2 9 2q6 51 24.5 109.5t53 125t79.5 120t113 88 t145 34.5q113 0 183.5 -64.5t70.5 -165t-62.5 -158.5t-160.5 -58q-41 0 -72.5 12t-31.5 35q0 2 1 21.5t0 30.5t-5.5 26.5t-16.5 24.5t-31 12q-53 6 -83.5 -49.5t-34.5 -123.5q121 16 196 -79q25 -33 61 -121t92 -161t155 -122q25 -12 25.5 -24.5t-23.5 -42.5 q-41 -45 -111 -79t-150 -34q-117 0 -192.5 48t-106 119t-47 140.5t-35 120.5t-53.5 55v-426l-8 -12h-412q-8 2 -8 10q16 467 17 608q0 111 -21.5 177.5t-46.5 81t-42 26t-11 27.5z" />
<glyph unicode="&#x45d;" d="M-209 1568q-4 10 4 17q102 123 264 161q8 2 13 -4q35 -139 91 -232t167 -204q8 -8 2 -14q-37 -63 -84 -101q-4 -2 -16 2q-304 107 -441 375zM-8 924q18 53 92 99t156 46q129 0 216 -85t87 -226v-398q0 -111 61 -118q53 -8 96 71q33 59 35 142v563l8 12h412q8 -2 8 -10 q-16 -467 -16 -608q0 -111 21.5 -177.5t46 -81t42 -25.5t11.5 -28q-18 -53 -92 -99t-156 -46q-106 0 -182 62.5t-97 172.5q-59 -121 -149 -178t-182 -57q-117 0 -199 94t-82 244v319q0 90 -16.5 150.5t-38 84t-43 36t-32.5 20t-7 21.5z" />
<glyph unicode="&#x45e;" horiz-adv-x="1218" d="M-8 924q18 53 92 99t156 46q129 0 215 -85t86 -226v-357q0 -111 61 -118q55 -8 98 71q35 63 37 154v510l8 10h396q8 0 8 -10q6 -596 6 -868q10 -272 -138.5 -440.5t-426.5 -168.5q-137 0 -244.5 56.5t-154 115t-62.5 107.5q-14 47 -16 74.5t6 35t20 4.5q14 -2 42 -27.5 t59.5 -55t95 -53t141.5 -23.5q117 0 188.5 76.5t75.5 177.5v204q-57 -123 -148 -180t-183 -57q-117 0 -199 94t-82 244v278q0 90 -16.5 150.5t-38 84t-43 36t-32.5 20t-7 21.5zM159.5 1474.5q18.5 81.5 88.5 124.5q70 45 150.5 26t123.5 -91q70 -113 -12 -223 q-31 -39 22 -62q98 -43 187 0q57 27 26 64q-82 109 -12 221q43 72 124 91.5t151 -26.5q70 -41 87 -120.5t-28 -163.5q-55 -96 -176 -150.5t-253 -55.5t-259 52t-191 154q-47 78 -28.5 159.5z" />
<glyph unicode="&#x490;" horiz-adv-x="1040" d="M57 313l2 1141l11 10q2 8 205.5 7t205.5 -1q147 0 148 154v74q0 20 35 20q133 0 239.5 -92t97.5 -225q-4 -100 -56 -167t-127 -90.5t-160 -29.5t-156 16q0 -242 6 -698q2 -90 19.5 -150.5t39 -84t41 -34.5t30.5 -19.5t5 -22.5q-20 -59 -103 -112.5t-171 -53.5 q-135 0 -223.5 89t-88.5 269z" />
<glyph unicode="&#x491;" horiz-adv-x="919" d="M59 276v734q0 8 4.5 12t8.5 4h4l366 8q70 0 99.5 30t29.5 91v111q0 16 31 16q113 0 201 -78t88 -194q0 -123 -107.5 -207t-302.5 -49l2 -334q0 -94 14.5 -155.5t33 -85t37 -35t28.5 -19.5t6 -25q-10 -49 -91 -96t-163 -47q-123 0 -206 89t-83 230z" />
<glyph unicode="&#x4ae;" horiz-adv-x="1368" d="M2 1450l8 16h492q10 0 14 -12l252 -625q41 61 67.5 135t36 135.5t12.5 125.5q1 27 1 50q0 31 -2 54q-4 41 -9 76l-4 33q-2 49 118 80q41 10 82 10q80 0 161 -39q123 -59 129 -229q0 -96 -33 -187.5t-74 -154t-112.5 -130t-117.5 -102.5t-120 -86v-174q2 -90 19.5 -150.5 t39 -84t41 -35t30.5 -19.5t5 -22q-18 -57 -102 -109.5t-172 -52.5q-135 0 -223 87t-88 267q0 211 -2 307z" />
<glyph unicode="&#x4c0;" horiz-adv-x="636" d="M-8 1364q18 53 105 101t175 48q131 0 217 -81.5t86 -245.5v-1176l-10 -10h-436l-8 10v1112q-6 68 -23.5 113t-37 62.5t-38 27.5t-26.5 17q-5 5 -6 13q1 4 2 9z" />
<glyph unicode="&#x4c1;" horiz-adv-x="2097" d="M639 2013q8 4 26.5 -9t50 -35.5t73.5 -45t111.5 -39t149.5 -16.5q82 0 153 16.5t112 39t71.5 45t48 35.5t25.5 9q39 -20 -16 -127q-57 -115 -166 -181t-227.5 -66t-228.5 67.5t-167 179.5q-51 109 -16 127zM-6 1255q-16 127 83 200t240 58q211 -23 335 -216t132 -433 q6 -2 22.5 -6t24.5 -8l-10 602l10 10h437l8 -10l-12 -602q8 4 25.5 8t23.5 6q6 152 59 291t161.5 241.5t252.5 116.5q141 14 237.5 -58.5t79.5 -199.5q-10 -84 -54 -135t-100.5 -64.5t-110.5 -13.5t-91 12.5t-37 20.5q0 6 2 26.5t1 32t-6 27t-20.5 22.5t-39.5 9 q-63 2 -115.5 -95.5t-50.5 -211.5q133 -18 235 -234q53 -111 165 -257t216 -179q8 -14 2 -66.5t-69.5 -116t-151.5 -73.5q-111 -12 -202 21.5t-151.5 98t-105.5 159t-67.5 192.5t-32.5 211q-31 8 -55 -8l12 -623l-10 -10h-437l-8 10l10 623q-25 16 -55 8q-12 -141 -47 -262 t-98.5 -225.5t-169 -157.5t-242.5 -37q-88 10 -151.5 73.5t-69.5 116t2 66.5q104 33 216 179.5t165 256.5q102 217 233 234q2 115 -49 213t-114 96q-10 0 -18.5 -3t-14.5 -6t-11.5 -10.5t-8.5 -11.5t-5 -14t-3 -14.5t-2 -15.5t-1 -15v-15v-14q0 -8 -37 -20.5t-91 -12.5 t-110.5 13.5t-100.5 64.5t-54 135z" />
<glyph unicode="&#x4c2;" horiz-adv-x="1828" d="M502 1572q8 4 26.5 -9t50 -35.5t73.5 -45t111.5 -39t149.5 -16.5q82 0 153 16.5t112 39t71.5 45t48 35.5t25.5 9q39 -20 -16 -127q-57 -115 -166 -181t-227.5 -66t-228.5 67.5t-167 179.5q-51 109 -16 127zM-8 100.5q-4 12.5 1 19.5t23 15q78 37 131.5 94.5t75 106.5 t49 109.5t52.5 93.5q78 98 196 82h2q-25 115 -53 145q-25 27 -61 27q-20 0 -35 -7.5t-20 -25t-6 -28.5t1 -34v-22q0 -23 -30.5 -35t-71.5 -12q-98 0 -160.5 58t-62.5 158.5t70.5 165t182.5 64.5q96 0 174 -46t125.5 -122t76 -152.5t40.5 -156.5q12 -4 17 -6v430l8 8h397 q0 -6 6 -8v-430q6 2 15 6q8 86 51 189.5t141 195.5t223 92q113 0 184.5 -64.5t71.5 -165t-62.5 -158.5t-162.5 -58q-41 0 -71.5 12t-30.5 35v22q2 23 1 33t-6.5 27.5t-19.5 26t-35 8.5q-35 0 -59.5 -31t-33.5 -61.5t-19 -82.5l-19 3q135 18 215 -82q27 -33 63 -121t91 -161 t155 -122q25 -12 25 -24.5t-25 -42.5q-37 -45 -108.5 -79t-149.5 -34q-117 0 -193.5 48t-106 117.5t-46 139.5t-36 122t-52.5 56v-426l-8 -10h-395q-8 0 -8 10v426q-31 -2 -49.5 -39t-27.5 -90t-31.5 -115.5t-54.5 -115.5t-102.5 -88t-171.5 -35q-78 0 -149.5 34t-108.5 79 q-18 20 -22 32.5z" />
<glyph unicode="&#x4d0;" horiz-adv-x="1411" d="M236 2019q8 4 26.5 -9t50 -35.5t73.5 -45t111.5 -39t149.5 -16.5q82 0 153 16.5t112 39t71.5 45t48 35.5t25.5 9q39 -20 -16 -127q-57 -115 -166 -181t-227.5 -66t-228.5 67.5t-167 179.5q-51 109 -16 127zM12 10q352 1102 353 1104q39 113 30.5 155t-27 69.5t-14.5 41.5 q18 57 109.5 99.5t183.5 42.5q119 0 221.5 -81t159.5 -241q39 -106 131 -404t166 -542l74 -244l-6 -10h-463q-10 0 -12 10l-52 217h-362l-45 -217q-4 -10 -15 -10h-428zM561 504h240l-121 594q-20 -86 -63.5 -310.5t-55.5 -283.5z" />
<glyph unicode="&#x4d1;" horiz-adv-x="1263" d="M21 1568q8 4 26.5 -9t50 -35.5t73.5 -45t111.5 -39t149.5 -16.5q82 0 153 16.5t112 39t71.5 45t48 35.5t25.5 9q39 -20 -16 -127q-57 -115 -166 -181t-227.5 -66t-228.5 67.5t-167 179.5q-51 109 -16 127zM20 516q0 225 111 390t301 165q197 0 305 -194v141l11 12h409 q8 -2 8 -10q-14 -467 -14 -608q0 -111 21.5 -177.5t46 -81t41 -25.5t10.5 -28q-16 -53 -90 -99t-156 -46q-106 0 -182 62.5t-97 170.5q-121 -231 -323 -231q-123 0 -217 84t-139.5 209t-45.5 266zM442 516q0 -121 41 -198.5t113 -77.5t113 77.5t41 198.5t-41 200t-113 79 t-113 -79t-41 -200z" />
<glyph unicode="&#x4d2;" horiz-adv-x="1411" d="M207 1820.5q0 73.5 59.5 125t143.5 51.5t144.5 -51.5t60.5 -125t-60.5 -125t-144.5 -51.5t-143.5 51.5t-59.5 125zM684 1820.5q0 73.5 59.5 125t143.5 51.5t143.5 -51.5t59.5 -125t-59.5 -125t-143.5 -51.5t-143.5 51.5t-59.5 125zM12 10q352 1102 353 1104 q39 113 30.5 155t-27 69.5t-14.5 41.5q18 57 109.5 99.5t183.5 42.5q119 0 221.5 -81t159.5 -241q39 -106 131 -404t166 -542l74 -244l-6 -10h-463q-10 0 -12 10l-52 217h-362l-45 -217q-4 -10 -15 -10h-428zM561 504h240l-121 594q-20 -86 -63.5 -310.5t-55.5 -283.5z" />
<glyph unicode="&#x4d3;" horiz-adv-x="1263" d="M-10 1369.5q0 73.5 59.5 125t143.5 51.5t144.5 -51.5t60.5 -125t-60.5 -125t-144.5 -51.5t-143.5 51.5t-59.5 125zM467 1369.5q0 73.5 59.5 125t143.5 51.5t143.5 -51.5t59.5 -125t-59.5 -125t-143.5 -51.5t-143.5 51.5t-59.5 125zM20 516q0 225 111 390t301 165 q197 0 305 -194v141l11 12h409q8 -2 8 -10q-14 -467 -14 -608q0 -111 21.5 -177.5t46 -81t41 -25.5t10.5 -28q-16 -53 -90 -99t-156 -46q-106 0 -182 62.5t-97 170.5q-121 -231 -323 -231q-123 0 -217 84t-139.5 209t-45.5 266zM442 516q0 -121 41 -198.5t113 -77.5 t113 77.5t41 198.5t-41 200t-113 79t-113 -79t-41 -200z" />
<glyph unicode="&#x4d5;" horiz-adv-x="2322" d="M20 516q0 225 111 390t301 165q197 0 305 -194v141l11 12h407q8 -2 8 -10q-4 -461 -8 -610q0 -80 22.5 -120t53.5 -36t65 29q-49 115 -49 233q0 231 163 394t421 163q229 0 355 -113.5t126 -242.5q0 -115 -62.5 -191.5t-157.5 -103.5t-209 -35t-214 14 q53 -150 230.5 -172t363.5 86q14 10 27 2q14 -10 6 -32q-10 -37 -46 -88.5t-94.5 -107.5t-152.5 -94t-199 -38q-236 0 -399 168q-72 -84 -156 -126t-211 -44q-109 -2 -191.5 69.5t-101.5 163.5q-121 -231 -323 -231q-123 0 -217 84t-139.5 209t-45.5 266zM442 516 q0 -121 41 -198.5t113 -77.5t113 77.5t41 198.5t-41 200t-113 79t-113 -79t-41 -200zM1653 582q133 -12 202.5 31.5t69.5 129.5q0 43 -30.5 72t-77.5 27q0 -2 -2 -2h-7q-25 -4 -49 -19q-92 -55 -106 -239z" />
<glyph unicode="&#x4d6;" horiz-adv-x="1110" d="M154 2007q8 4 26.5 -9t50 -35.5t73.5 -45t111.5 -39t149.5 -16.5q82 0 153 16.5t112 39t71.5 45t48 35.5t25.5 9q39 -20 -16 -127q-57 -115 -166 -181t-227.5 -66t-228.5 67.5t-167 179.5q-51 109 -16 127zM61 512l2 944l13 10h977q12 0 16 -10t7 -26.5t4 -63.5t-10 -88 t-51 -87t-105.5 -72.5t-164 -27.5t-163.5 11l-66 12q0 -12 -1 -111.5t-1 -158.5h338l10 -10v-205l-12 -11h-338v-147q2 -94 65.5 -143t149.5 -52.5t172 17t144 57.5q31 18 43 4t6 -53q-6 -43 -41 -98.5t-94.5 -112.5t-159 -96t-215.5 -39q-250 0 -387.5 164t-137.5 393z" />
<glyph unicode="&#x4d7;" horiz-adv-x="1095" d="M193 1570q8 4 26.5 -9t50 -35.5t73.5 -45t111.5 -39t149.5 -16.5q82 0 153 16.5t112 39t71.5 45t48 35.5t25.5 9q39 -20 -16 -127q-57 -115 -166 -181t-227.5 -66t-228.5 67.5t-167 179.5q-51 109 -16 127zM20 516.5q0 231.5 163 394t421 162.5q229 0 355 -113.5 t126 -242.5q0 -115 -62 -191.5t-157.5 -103.5t-209 -35t-214.5 14q53 -150 230.5 -172t363.5 86q14 10 27 2q14 -10 6 -32q-10 -37 -46 -88.5t-94.5 -107.5t-152.5 -94t-198 -38q-231 0 -394.5 164t-163.5 395.5zM426 582q133 -12 202.5 31.5t69.5 129.5q0 43 -30.5 72 t-77.5 27q0 -2 -2 -2h-6q-25 -4 -50 -19q-92 -55 -106 -239z" />
<glyph unicode="&#x4dc;" horiz-adv-x="2097" d="M610 1814.5q0 73.5 59.5 125t143.5 51.5t144.5 -51.5t60.5 -125t-60.5 -125t-144.5 -51.5t-143.5 51.5t-59.5 125zM1087 1814.5q0 73.5 59.5 125t143.5 51.5t143.5 -51.5t59.5 -125t-59.5 -125t-143.5 -51.5t-143.5 51.5t-59.5 125zM-6 1255q-16 127 83 200t240 58 q211 -23 335 -216t132 -433q6 -2 22.5 -6t24.5 -8l-10 602l10 10h437l8 -10l-12 -602q8 4 25.5 8t23.5 6q6 152 59 291t161.5 241.5t252.5 116.5q141 14 237.5 -58.5t79.5 -199.5q-10 -84 -54 -135t-100.5 -64.5t-110.5 -13.5t-91 12.5t-37 20.5q0 6 2 26.5t1 32t-6 27 t-20.5 22.5t-39.5 9q-63 2 -115.5 -95.5t-50.5 -211.5q133 -18 235 -234q53 -111 165 -257t216 -179q8 -14 2 -66.5t-69.5 -116t-151.5 -73.5q-111 -12 -202 21.5t-151.5 98t-105.5 159t-67.5 192.5t-32.5 211q-31 8 -55 -8l12 -623l-10 -10h-437l-8 10l10 623q-25 16 -55 8 q-12 -141 -47 -262t-98.5 -225.5t-169 -157.5t-242.5 -37q-88 10 -151.5 73.5t-69.5 116t2 66.5q104 33 216 179.5t165 256.5q102 217 233 234q2 115 -49 213t-114 96q-10 0 -18.5 -3t-14.5 -6t-11.5 -10.5t-8.5 -11.5t-5 -14t-3 -14.5t-2 -15.5t-1 -15v-15v-14 q0 -8 -37 -20.5t-91 -12.5t-110.5 13.5t-100.5 64.5t-54 135z" />
<glyph unicode="&#x4dd;" horiz-adv-x="1828" d="M473 1374.5q0 73.5 59.5 125t143.5 51.5t144.5 -51.5t60.5 -125t-60.5 -125t-144.5 -51.5t-143.5 51.5t-59.5 125zM950 1374.5q0 73.5 59.5 125t143.5 51.5t143.5 -51.5t59.5 -125t-59.5 -125t-143.5 -51.5t-143.5 51.5t-59.5 125zM-8 100.5q-4 12.5 1 19.5t23 15 q78 37 131.5 94.5t75 106.5t49 109.5t52.5 93.5q78 98 196 82h2q-25 115 -53 145q-25 27 -61 27q-20 0 -35 -7.5t-20 -25t-6 -28.5t1 -34v-22q0 -23 -30.5 -35t-71.5 -12q-98 0 -160.5 58t-62.5 158.5t70.5 165t182.5 64.5q96 0 174 -46t125.5 -122t76 -152.5t40.5 -156.5 q12 -4 17 -6v430l8 8h397q0 -6 6 -8v-430q6 2 15 6q8 86 51 189.5t141 195.5t223 92q113 0 184.5 -64.5t71.5 -165t-62.5 -158.5t-162.5 -58q-41 0 -71.5 12t-30.5 35v22q2 23 1 33t-6.5 27.5t-19.5 26t-35 8.5q-35 0 -59.5 -31t-33.5 -61.5t-19 -82.5l-19 3q135 18 215 -82 q27 -33 63 -121t91 -161t155 -122q25 -12 25 -24.5t-25 -42.5q-37 -45 -108.5 -79t-149.5 -34q-117 0 -193.5 48t-106 117.5t-46 139.5t-36 122t-52.5 56v-426l-8 -10h-395q-8 0 -8 10v426q-31 -2 -49.5 -39t-27.5 -90t-31.5 -115.5t-54.5 -115.5t-102.5 -88t-171.5 -35 q-78 0 -149.5 34t-108.5 79q-18 20 -22 32.5z" />
<glyph unicode="&#x4de;" horiz-adv-x="1269" d="M153 1810.5q0 73.5 59.5 125t143.5 51.5t144.5 -51.5t60.5 -125t-60.5 -125t-144.5 -51.5t-143.5 51.5t-59.5 125zM630 1810.5q0 73.5 59.5 125t143.5 51.5t143.5 -51.5t59.5 -125t-59.5 -125t-143.5 -51.5t-143.5 51.5t-59.5 125zM20 326q0 104 63.5 167.5t172.5 63.5 q61 0 115.5 -20.5t58.5 -40.5q2 -14 1 -26.5t-3 -40.5t-2 -50q0 -84 46 -139.5t108 -55.5q123 0 177 108.5t-4.5 217t-211.5 108.5h-54q-10 0 -10 15v215l10 10h93q82 0 134 42t60 101.5t-6 119t-62.5 101.5t-113.5 42q-68 0 -119 -50.5t-51 -130.5v-116q-8 -20 -57.5 -42 t-108.5 -22q-106 0 -171 65.5t-65 168.5q0 100 57.5 177t148.5 118t184.5 60t185.5 19q117 0 223.5 -21.5t203.5 -68.5t152.5 -138t51.5 -214q-10 -246 -275 -313q297 -92 297 -336q0 -123 -60.5 -217t-159.5 -146.5t-208.5 -77t-224.5 -24.5q-92 0 -185.5 19.5t-184.5 59.5 t-148.5 116t-57.5 176z" />
<glyph unicode="&#x4df;" horiz-adv-x="1024" d="M47 1372.5q0 73.5 59.5 125t143.5 51.5t144.5 -51.5t60.5 -125t-60.5 -125t-144.5 -51.5t-143.5 51.5t-59.5 125zM524 1372.5q0 73.5 59.5 125t143.5 51.5t143.5 -51.5t59.5 -125t-59.5 -125t-143.5 -51.5t-143.5 51.5t-59.5 125zM20 221q0 78 54.5 132.5t138.5 54.5 q49 0 96 -11.5t53 -23.5q6 -8 7.5 -19.5t-0.5 -32t-2 -32.5q0 -59 30.5 -92t77.5 -33q53 0 85 33.5t32 81.5q0 53 -31 96t-110 43h-48q-8 0 -8 10v190l8 9h72q59 0 88 37.5t29 83.5q0 49 -26.5 82.5t-80 33.5t-86 -32.5t-32.5 -92.5q0 -12 2 -33.5t1 -31.5t-8 -19 q-6 -12 -53 -24.5t-96 -12.5q-84 0 -138.5 55.5t-54.5 131.5q0 72 47.5 127t122 83.5t150.5 43t149 14.5q127 0 232.5 -25.5t187.5 -100.5t82 -191q0 -172 -221 -226q233 -66 234 -241q0 -117 -84 -196t-195 -108.5t-236 -29.5q-72 0 -148.5 13.5t-151 43t-122 83.5 t-47.5 126z" />
<glyph unicode="&#x4e4;" horiz-adv-x="1439" d="M-170 1812.5q0 73.5 59.5 125t143.5 51.5t144.5 -51.5t60.5 -125t-60.5 -125t-144.5 -51.5t-143.5 51.5t-59.5 125zM307 1812.5q0 73.5 59.5 125t143.5 51.5t143.5 -51.5t59.5 -125t-59.5 -125t-143.5 -51.5t-143.5 51.5t-59.5 125zM-8 1364q18 53 105 101t175 48 q131 0 217 -81.5t86 -245.5v-416l-18 -172l414 856q6 10 14 10h377l10 -10l6 -1444l-10 -10h-426l-8 10l10 582l21 196q-49 -90 -198 -384.5t-204 -393.5q-4 -10 -16 -10h-418l-8 10v1112q-6 68 -23.5 113t-37 62.5t-38 27.5t-26.5 17.5t-4 21.5z" />
<glyph unicode="&#x4e5;" d="M-203 1367.5q0 73.5 59.5 125t143.5 51.5t144.5 -51.5t60.5 -125t-60.5 -125t-144.5 -51.5t-143.5 51.5t-59.5 125zM274 1367.5q0 73.5 59.5 125t143.5 51.5t143.5 -51.5t59.5 -125t-59.5 -125t-143.5 -51.5t-143.5 51.5t-59.5 125zM-8 924q18 53 92 99t156 46 q129 0 216 -85t87 -226v-398q0 -111 61 -118q53 -8 96 71q33 59 35 142v563l8 12h412q8 -2 8 -10q-16 -467 -16 -608q0 -111 21.5 -177.5t46 -81t42 -25.5t11.5 -28q-18 -53 -92 -99t-156 -46q-106 0 -182 62.5t-97 172.5q-59 -121 -149 -178t-182 -57q-117 0 -199 94 t-82 244v319q0 90 -16.5 150.5t-38 84t-43 36t-32.5 20t-7 21.5z" />
<glyph unicode="&#x4e6;" horiz-adv-x="1460" d="M289 1808.5q0 73.5 59.5 125t143.5 51.5t144.5 -51.5t60.5 -125t-60.5 -125t-144.5 -51.5t-143.5 51.5t-59.5 125zM766 1808.5q0 73.5 59.5 125t143.5 51.5t143.5 -51.5t59.5 -125t-59.5 -125t-143.5 -51.5t-143.5 51.5t-59.5 125zM20 731.5q0 323.5 198 550.5t511 227 q315 0 513 -227t198 -551q0 -326 -194.5 -550t-516.5 -224q-315 0 -512 225.5t-197 549zM483 731q0 -195 70 -370t176 -175q76 0 134.5 87t86 209t27.5 249q0 201 -69.5 375t-178 174t-177.5 -174t-69 -375z" />
<glyph unicode="&#x4e7;" horiz-adv-x="1187" d="M153 1365.5q0 73.5 59.5 125t143.5 51.5t144.5 -51.5t60.5 -125t-60.5 -125t-144.5 -51.5t-143.5 51.5t-59.5 125zM630 1365.5q0 73.5 59.5 125t143.5 51.5t143.5 -51.5t59.5 -125t-59.5 -125t-143.5 -51.5t-143.5 51.5t-59.5 125zM20 509.5q0 233.5 164 395.5t410 162 t409.5 -162t163.5 -395q0 -236 -161.5 -396.5t-411.5 -160.5q-246 0 -410 161.5t-164 395zM424 510q0 -139 43 -232.5t127 -93.5q88 0 129 90.5t41 235.5q0 141 -43 233.5t-127 92.5q-86 0 -128 -91.5t-42 -234.5z" />
<glyph unicode="&#x4ec;" horiz-adv-x="1304" d="M121 1808.5q0 73.5 59.5 125t143.5 51.5t144.5 -51.5t60.5 -125t-60.5 -125t-144.5 -51.5t-143.5 51.5t-59.5 125zM598 1808.5q0 73.5 59.5 125t143.5 51.5t143.5 -51.5t59.5 -125t-59.5 -125t-143.5 -51.5t-143.5 51.5t-59.5 125zM20 330q0 90 61.5 161.5t166.5 71.5 q68 0 114 -21.5t44 -52.5q-16 -113 19.5 -194.5t131.5 -81.5q109 0 182.5 116.5t73.5 282.5h-324q-12 0 -12 11v223l10 10h326q4 162 -70.5 278.5t-185.5 116.5q-96 0 -132 -82t-19 -194q2 -31 -44.5 -52.5t-113.5 -21.5q-104 0 -166 71.5t-62 162.5q0 166 154 271t393 103 q313 -2 515 -228t202 -542q0 -322 -205 -552t-512 -232q-240 -2 -393.5 103.5t-153.5 271.5z" />
<glyph unicode="&#x4ed;" horiz-adv-x="1083" d="M39 1372.5q0 73.5 59.5 125t143.5 51.5t144.5 -51.5t60.5 -125t-60.5 -125t-144.5 -51.5t-143.5 51.5t-59.5 125zM516 1372.5q0 73.5 59.5 125t143.5 51.5t143.5 -51.5t59.5 -125t-59.5 -125t-143.5 -51.5t-143.5 51.5t-59.5 125zM20 238q0 80 53.5 138t143.5 58 q55 0 97 -15.5t40 -43.5q-8 -84 19 -127q37 -59 116 -60q154 0 166 205h-254q-8 0 -8 10v203l8 8h254q-14 227 -182 228q-68 -6 -98 -58q-27 -47 -19 -129q2 -29 -40 -44t-97 -15q-90 0 -144.5 59.5t-51.5 137.5q2 76 47 132t116.5 86.5t143 45t147.5 16.5h2h2 q262 0 436.5 -182t139.5 -418q-16 -227 -182 -371.5t-400 -140.5q-102 2 -199.5 27.5t-176.5 90.5t-79 159z" />
<glyph unicode="&#x4f0;" horiz-adv-x="1329" d="M-183 1808.5q0 73.5 59.5 125t143.5 51.5t144.5 -51.5t60.5 -125t-60.5 -125t-144.5 -51.5t-143.5 51.5t-59.5 125zM294 1808.5q0 73.5 59.5 125t143.5 51.5t143.5 -51.5t59.5 -125t-59.5 -125t-143.5 -51.5t-143.5 51.5t-59.5 125zM-8 1346q18 55 98 106t170 51 q141 0 239.5 -94t104.5 -248l8 -231q2 -86 47.5 -121t94.5 -3t65 114q14 102 -12 530l10 10h451q10 0 10 -10q0 -594 -14 -817q-18 -305 -169 -486.5t-403 -201.5q-223 -18 -369.5 58.5t-154.5 246.5q-6 106 60.5 168.5t177.5 62.5q66 0 123 -33.5t53 -64.5 q-37 -109 -7.5 -172.5t95.5 -63.5q31 0 56.5 12.5t41.5 38t29.5 51t19.5 67.5t10 71t4 78v71q0 22 -2 66.5t-2 50.5q-74 -98 -186.5 -128.5t-215.5 2t-180 131t-85 239.5l-6 102q-4 123 -33 196t-60.5 90.5t-53 30t-15.5 30.5z" />
<glyph unicode="&#x4f1;" horiz-adv-x="1218" d="M-203 1367.5q0 73.5 59.5 125t143.5 51.5t144.5 -51.5t60.5 -125t-60.5 -125t-144.5 -51.5t-143.5 51.5t-59.5 125zM274 1367.5q0 73.5 59.5 125t143.5 51.5t143.5 -51.5t59.5 -125t-59.5 -125t-143.5 -51.5t-143.5 51.5t-59.5 125zM-8 924q18 53 92 99t156 46 q129 0 215 -85t86 -226v-357q0 -111 61 -118q55 -8 98 71q35 63 37 154v510l8 10h396q8 0 8 -10q6 -596 6 -868q10 -272 -138.5 -440.5t-426.5 -168.5q-137 0 -244.5 56.5t-154 115t-62.5 107.5q-14 47 -16 74.5t6 35t20 4.5q14 -2 42 -27.5t59.5 -55t95 -53t141.5 -23.5 q117 0 188.5 76.5t75.5 177.5v204q-57 -123 -148 -180t-183 -57q-117 0 -199 94t-82 244v278q0 90 -16.5 150.5t-38 84t-43 36t-32.5 20t-7 21.5z" />
<glyph unicode="&#x4f2;" horiz-adv-x="1329" d="M-78 1733q-6 6 2 14q111 111 167.5 204t90.5 232q4 6 13 4q162 -39 264 -161q4 -2 5 -8.5t-1 -8.5q-137 -268 -440 -375q-12 -4 -17 -2q-47 38 -84 101zM414 1733q-6 6 2 14q111 111 167 204t91 232q4 6 12 4q162 -39 264 -161q4 -2 5 -8.5t-1 -8.5q-137 -268 -440 -375 q-12 -4 -16 -2q-47 38 -84 101zM-8 1346q18 55 98 106t170 51q141 0 239.5 -94t104.5 -248l8 -231q2 -86 47.5 -121t94.5 -3t65 114q14 102 -12 530l10 10h451q10 0 10 -10q0 -594 -14 -817q-18 -305 -169 -486.5t-403 -201.5q-223 -18 -369.5 58.5t-154.5 246.5 q-6 106 60.5 168.5t177.5 62.5q66 0 123 -33.5t53 -64.5q-37 -109 -7.5 -172.5t95.5 -63.5q31 0 56.5 12.5t41.5 38t29.5 51t19.5 67.5t10 71t4 78v71q0 22 -2 66.5t-2 50.5q-74 -98 -186.5 -128.5t-215.5 2t-180 131t-85 239.5l-6 102q-4 123 -33 196t-60.5 90.5t-53 30 t-15.5 30.5z" />
<glyph unicode="&#x4f3;" horiz-adv-x="1218" d="M-99 1292q-6 6 2 14q111 111 167.5 204t90.5 232q4 6 13 4q162 -39 264 -161q4 -2 5 -8.5t-1 -8.5q-137 -268 -440 -375q-12 -4 -17 -2q-47 38 -84 101zM393 1292q-6 6 2 14q111 111 167 204t91 232q4 6 12 4q162 -39 264 -161q4 -2 5 -8.5t-1 -8.5q-137 -268 -440 -375 q-12 -4 -16 -2q-47 38 -84 101zM-8 924q18 53 92 99t156 46q129 0 215 -85t86 -226v-357q0 -111 61 -118q55 -8 98 71q35 63 37 154v510l8 10h396q8 0 8 -10q6 -596 6 -868q10 -272 -138.5 -440.5t-426.5 -168.5q-137 0 -244.5 56.5t-154 115t-62.5 107.5q-14 47 -16 74.5 t6 35t20 4.5q14 -2 42 -27.5t59.5 -55t95 -53t141.5 -23.5q117 0 188.5 76.5t75.5 177.5v204q-57 -123 -148 -180t-183 -57q-117 0 -199 94t-82 244v278q0 90 -16.5 150.5t-38 84t-43 36t-32.5 20t-7 21.5z" />
<glyph unicode="&#x4f4;" horiz-adv-x="1454" d="M-174 1808.5q0 73.5 59.5 125t143.5 51.5t144.5 -51.5t60.5 -125t-60.5 -125t-144.5 -51.5t-143.5 51.5t-59.5 125zM303 1808.5q0 73.5 59.5 125t143.5 51.5t143.5 -51.5t59.5 -125t-59.5 -125t-143.5 -51.5t-143.5 51.5t-59.5 125zM-8 1346q20 55 102 106t172 51 q141 0 236.5 -94t95.5 -248v-297q0 -113 80 -129q76 -14 137 60q53 61 53 151l2 502l9 14h438q10 -4 10 -12q-2 -68 4 -1040q4 -104 27.5 -166t50.5 -76t43 -25.5t10 -27.5q-16 -53 -108 -104.5t-180 -51.5q-131 0 -218.5 84t-87.5 254v348q-59 -127 -182 -185.5t-242.5 -40 t-210 117t-90.5 254.5v208q0 123 -26.5 196t-57 90.5t-52 30t-15.5 30.5z" />
<glyph unicode="&#x4f5;" horiz-adv-x="1226" d="M-203 1367.5q0 73.5 59.5 125t143.5 51.5t144.5 -51.5t60.5 -125t-60.5 -125t-144.5 -51.5t-143.5 51.5t-59.5 125zM274 1367.5q0 73.5 59.5 125t143.5 51.5t143.5 -51.5t59.5 -125t-59.5 -125t-143.5 -51.5t-143.5 51.5t-59.5 125zM-8 924q18 53 92 99t156 46 q129 0 215 -85t86 -226v-123q0 -121 57 -133q49 -12 82 59q23 49 22 117v340l11 12h409q8 -2 8 -10q-16 -467 -16 -608q0 -111 21.5 -177.5t47 -81t42 -25.5t10.5 -28q-16 -53 -90 -99t-156 -46q-127 0 -207 85t-80 226v140q-92 -129 -276 -130q-137 0 -217 89.5t-80 246.5 q0 90 -16.5 150.5t-38 84t-43 36t-32.5 20t-7 21.5z" />
<glyph unicode="&#x4f8;" horiz-adv-x="1867" d="M-152 1808.5q0 73.5 59.5 125t143.5 51.5t144.5 -51.5t60.5 -125t-60.5 -125t-144.5 -51.5t-143.5 51.5t-59.5 125zM325 1808.5q0 73.5 59.5 125t143.5 51.5t143.5 -51.5t59.5 -125t-59.5 -125t-143.5 -51.5t-143.5 51.5t-59.5 125zM61 1452l11 10h436l8 -10v-469 q178 27 321.5 -4t231.5 -103.5t135 -171t47 -210.5q0 -244 -156.5 -391.5t-441.5 -147.5q-156 0 -274.5 53t-185 140.5t-98.5 184.5t-32 202zM516 412q2 -84 39 -146.5t111 -62.5q66 0 105.5 77.5t39.5 172.5q0 164 -77 242.5t-218 52.5v-336zM1296 266v1184l11 10h438 l8 -10q2 -877 2 -1018q0 -111 21.5 -180.5t46 -88t42 -32.5t11.5 -31q-16 -51 -103 -98t-171 -47q-129 0 -217.5 85t-88.5 226z" />
<glyph unicode="&#x4f9;" horiz-adv-x="1624" d="M772 1367.5q0 73.5 59.5 125t143.5 51.5t144.5 -51.5t60.5 -125t-60.5 -125t-144.5 -51.5t-143.5 51.5t-59.5 125zM1249 1367.5q0 73.5 59.5 125t143.5 51.5t143.5 -51.5t59.5 -125t-59.5 -125t-143.5 -51.5t-143.5 51.5t-59.5 125zM61 399v2v2v3v2v2v2v2v2v2v2v2v2v2v2 v2v2v2v2v2v2v2v2v2v3v2v2v2v2v2v2v2v2v2v2v2v2v2v2v2v2v4v2v2v3v2v2v2v2v2v2v4v2v2v2v2v2v2v4v2v2v2v2v5v2v2v2v4v2v2v2v4v2v2v2v4v2v2v2v5v2v2v4v2v2v4v2v2v4v2v2v4v2v4v2v3v4v2v2v4v2v4v2v4v2v2v4v2v4v3v4v2v4v2v4v2v4v2v4v2v4v2v4v3v4v2v4v2v4v2v4v2v4v4v2v4v2v5v2v4v4v2 v4v2v4v4v2v4v4v2v5v2v4v4v2v4v4v2v4v4v4v2v5v4v2v4v4v2v4v4v4v2v4v4v5v2v4v4v4v2v4v4v4v2v4v4v5v4v2v4v4v4v4v4v2v4v4v5v4v4v4v2v4v4v4v4v4v4v2v19l9 10h395q8 -2 8 -12v-225q86 14 164 14q115 0 213 -57q53 164 155.5 241.5t208.5 77.5q119 0 201 -94t82 -244v-319 q0 -90 16.5 -150.5t38 -84t42 -36t32.5 -19.5t6 -22q-18 -53 -92 -99t-156 -46q-127 0 -214 85t-87 226v398q0 121 -55 120.5t-88 -106.5q104 -115 104 -275q0 -195 -143 -321.5t-350 -126.5q-135 0 -235.5 42t-152.5 110.5t-77 141t-25 150.5zM473 356q4 -164 88 -163 q96 0 96 221q0 90 -37.5 143t-105.5 53q-20 0 -41 -4v-250z" />
<glyph unicode="&#x2000;" horiz-adv-x="1097" />
<glyph unicode="&#x2001;" horiz-adv-x="2195" />
<glyph unicode="&#x2002;" horiz-adv-x="1097" />
<glyph unicode="&#x2003;" horiz-adv-x="2195" />
<glyph unicode="&#x2004;" horiz-adv-x="731" />
<glyph unicode="&#x2005;" horiz-adv-x="548" />
<glyph unicode="&#x2006;" horiz-adv-x="364" />
<glyph unicode="&#x2007;" horiz-adv-x="364" />
<glyph unicode="&#x2008;" horiz-adv-x="274" />
<glyph unicode="&#x2009;" horiz-adv-x="438" />
<glyph unicode="&#x200a;" horiz-adv-x="120" />
<glyph unicode="&#x2010;" horiz-adv-x="753" d="M61 430v176q2 10 13 10h608l8 -8v-180q0 -6 -8 -6h-610z" />
<glyph unicode="&#x2011;" horiz-adv-x="753" d="M61 430v176q2 10 13 10h608l8 -8v-180q0 -6 -8 -6h-610z" />
<glyph unicode="&#x2012;" horiz-adv-x="753" d="M61 430v176q2 10 13 10h608l8 -8v-180q0 -6 -8 -6h-610z" />
<glyph unicode="&#x2013;" horiz-adv-x="1024" d="M59 414v176q2 10 13 10h874l8 -8v-180q0 -6 -8 -6h-876z" />
<glyph unicode="&#x2014;" horiz-adv-x="1665" d="M59 414v176q2 10 13 10h1515l8 -8v-180q0 -6 -8 -6h-1517z" />
<glyph unicode="&#x2018;" horiz-adv-x="421" d="M31 1133q0 131 74.5 217t146.5 110q92 33 92 -4q0 -20 -31 -47q-37 -35 -52 -58.5t-11 -38t22 -20.5q53 -23 86 -67.5t33 -104.5q0 -74 -53 -127t-127 -53t-127 55.5t-53 137.5z" />
<glyph unicode="&#x2019;" horiz-adv-x="421" d="M31 1298q0 74 52 127.5t128 53.5q74 0 127 -55.5t53 -137.5q0 -131 -74.5 -217t-146.5 -111q-94 -35 -94 5q0 18 33 47q37 35 52 58.5t11 37.5t-22 20q-53 23 -86 68t-33 104z" />
<glyph unicode="&#x201a;" horiz-adv-x="419" d="M31 164q0 74 52 127t128 53q74 0 127 -55.5t53 -136.5q0 -131 -74.5 -217.5t-146.5 -110.5q-94 -35 -94 4q0 18 33 47q37 35 52 58.5t11 38t-22 20.5q-53 23 -86 68t-33 104z" />
<glyph unicode="&#x201c;" horiz-adv-x="811" d="M31 1133q0 131 74.5 217t146.5 110q92 33 92 -4q0 -20 -31 -47q-37 -35 -52 -58.5t-11 -38t22 -20.5q53 -23 86 -67.5t33 -104.5q0 -74 -53 -127t-127 -53t-127 55.5t-53 137.5zM420 1133q0 131 74.5 217t146.5 110q94 35 94 -4q0 -18 -33 -47q-37 -35 -52 -58.5t-11 -38 t23 -20.5q53 -23 85.5 -67.5t32.5 -104.5q0 -74 -52 -127t-128 -53q-74 0 -127 55.5t-53 137.5z" />
<glyph unicode="&#x201d;" horiz-adv-x="811" d="M31 1298q0 74 52 127.5t128 53.5q74 0 127 -55.5t53 -137.5q0 -131 -74.5 -217t-146.5 -111q-94 -35 -94 5q0 18 33 47q37 35 52 58.5t11 37.5t-22 20q-53 23 -86 68t-33 104zM420 1298q0 74 53 127.5t127 53.5t127 -55.5t53 -137.5q0 -131 -74.5 -217t-146.5 -111 q-92 -33 -92 5q0 20 31 47q37 35 52 58.5t11 37.5t-22 20q-53 23 -86 68t-33 104z" />
<glyph unicode="&#x201e;" horiz-adv-x="811" d="M31 154q0 74 52 127t128 53q74 0 127 -55.5t53 -137.5q0 -131 -74.5 -217t-146.5 -110q-94 -35 -94 4q0 18 33 47q37 35 52 58.5t11 37.5t-22 21q-53 23 -86 68t-33 104zM420 154q0 74 53 127t127 53t127 -55.5t53 -137.5q0 -131 -74.5 -217t-146.5 -110q-92 -33 -92 4 q0 20 31 47q37 35 52 58.5t11 37.5t-22 21q-53 23 -86 68t-33 104z" />
<glyph unicode="&#x2022;" horiz-adv-x="692" d="M41 510q0 127 89 217t216 90t216 -90t89 -217q0 -125 -90 -215t-215 -90q-127 0 -216 89t-89 216z" />
<glyph unicode="&#x2026;" horiz-adv-x="1507" d="M31 164q0 82 58 141.5t142 59.5t142.5 -59.5t58.5 -141.5t-58.5 -141.5t-142.5 -59.5t-142 59.5t-58 141.5zM553 164q0 82 59.5 141.5t141.5 59.5t141 -59.5t59 -141.5t-59 -141.5t-141 -59.5t-141.5 59.5t-59.5 141.5zM1075 164q0 82 58.5 141.5t142.5 59.5t142.5 -59.5 t58.5 -141.5t-58.5 -141.5t-142.5 -59.5t-142.5 59.5t-58.5 141.5z" />
<glyph unicode="&#x202f;" horiz-adv-x="438" />
<glyph unicode="&#x205f;" horiz-adv-x="548" />
<glyph unicode="&#x20ac;" horiz-adv-x="1155" d="M10 348v125q0 6 8 6q27 0 88 -4q-2 12 -2 39q0 25 2 37q-53 -4 -86 -4l-10 8v125q0 6 8 6q51 0 111 -6q53 172 200.5 280.5t352.5 110.5h2h4q47 0 72 -4q94 -8 176 -38t144.5 -92.5t62.5 -145.5q0 -78 -53.5 -136.5t-143.5 -58.5q-55 0 -97 14.5t-40 42.5q6 86 -18 129 q-31 49 -99 58h-18q-25 0 -35 -4q-88 -23 -117 -160l219 10l11 -8v-121q0 -10 -11 -10q-94 8 -231 12q0 -2 -1 -8t-1 -10q2 -8 2 -27v-47l231 12l11 -8v-121q0 -10 -11 -10q-88 8 -217 12q29 -137 117 -159q10 -4 35 -5h16q68 6 99 58q27 47 18 129q-2 29 41 44t96 15 q90 0 144.5 -59.5t52.5 -136.5q0 -84 -62.5 -146.5t-144.5 -92.5t-176 -38q-23 -4 -70 -4h-2h-2h-2q-205 2 -352.5 110.5t-200.5 278.5q-104 -6 -111 -6z" />
<glyph unicode="&#x2122;" horiz-adv-x="1132" d="M10 942v115q0 4 6 4h463l4 -4v-117q0 -2 -2 -2q-31 -6 -145 -10v-303l-4 -4h-168q-2 0 -2 4q-2 170 -2 303q-102 4 -146 10zM504 625q8 412 8 432l2 2h203l6 -4l84 -162h2l84 162q2 4 6 4h203q2 0 2 -2l6 -432l-2 -4h-168q-4 0 -4 6v204l6 39q0 2 -6 2t-6 -2l-12 -43 l-91 -198q-2 -8 -12 -8h-14q-10 0 -13 8l-90 196l-12 45q-4 2 -12 0q0 -12 6 -43v-200l-4 -6h-168q-4 2 -4 4z" />
<glyph unicode="&#xe000;" horiz-adv-x="1065" d="M0 1065h1065v-1065h-1065v1065z" />
<glyph horiz-adv-x="509" />
</font>
</defs>
</svg>
